<?xml version="1.0" encoding="UTF-8"?>
<svg width="132px" height="264px" viewBox="0 0 132 264" version="1.1" xmlns="http://www.w3.org/2000/svg" xmlns:xlink="http://www.w3.org/1999/xlink">
    <!-- Generator: Sketch 52.5 (67469) - http://www.bohemiancoding.com/sketch -->
    <title>分组 3</title>
    <desc>Created with Sketch.</desc>
    <defs>
        <linearGradient x1="0%" y1="0%" x2="99.707918%" y2="98.7303903%" id="linearGradient-1">
            <stop stop-color="#03CE91" offset="0%"></stop>
            <stop stop-color="#03C087" offset="100%"></stop>
        </linearGradient>
        <linearGradient x1="50%" y1="26.9114283%" x2="0.864955357%" y2="26.9114286%" id="linearGradient-2">
            <stop stop-color="#FFFFFF" stop-opacity="0" offset="0%"></stop>
            <stop stop-color="#FFFFFF" offset="100%"></stop>
        </linearGradient>
        <linearGradient x1="50%" y1="26.9114283%" x2="0%" y2="26.9114286%" id="linearGradient-3">
            <stop stop-color="#FFFFFF" stop-opacity="0.305876359" offset="0%"></stop>
            <stop stop-color="#FFFFFF" stop-opacity="0.55" offset="100%"></stop>
        </linearGradient>
    </defs>
    <g id="Page-1" stroke="none" stroke-width="1" fill="none" fill-rule="evenodd">
        <g id="1920-copy-4" transform="translate(-1123.000000, -1787.000000)">
            <g id="分组-15" transform="translate(-760.000000, 1371.000000)">
                <g id="分组-27">
                    <g id="分组-3" transform="translate(1883.000000, 416.000000)">
                        <path d="M20.0916044,4.39137064 L110.717895,4.39137064 C120.372563,4.39137064 128.199218,12.2180257 128.199218,21.872694 L128.199218,241.681935 C128.199218,249.40567 121.937894,255.666994 114.214159,255.666994 L16.5953397,255.666994 C8.87160509,255.666994 2.61028104,249.40567 2.61028104,241.681935 L2.61028104,21.872694 C2.61028104,12.2180257 10.4369361,4.39137064 20.0916044,4.39137064 Z" id="screen" fill="#FFFFFF"></path>
                        <text id="当前委托" font-family="PingFangSC-Regular, PingFang SC" font-size="6.99252935" font-weight="normal" fill="#1F4474">
                            <tspan x="9" y="168"></tspan>
                        </text>
                        <g id="分组-2" transform="translate(8.000000, 175.000000)" fill-rule="nonzero">
                            <rect id="矩形" fill="#03C087" opacity="0.5" x="0.740661686" y="0.31696905" width="10.7385272" height="6.24332978" rx="0.499466382"></rect>
                            <rect id="矩形-copy-4" fill="#ECF0F3" x="0.740661686" y="17.5485592" width="33.963714" height="6.24332978" rx="0.499466382"></rect>
                            <rect id="矩形-copy-5" fill="#ECF0F3" x="42.4461046" y="17.5485592" width="36.7107791" height="6.24332978" rx="0.499466382"></rect>
                            <rect id="矩形-copy-6" fill="#ECF0F3" x="87.398079" y="17.5485592" width="25.7225187" height="6.24332978" rx="0.499466382"></rect>
                            <path d="M14.4434133,1.56563501 L34.2374832,1.56563501 C34.4953408,1.56563501 34.7043757,1.77466989 34.7043757,2.03252749 L34.7043757,5.09447357 C34.7043757,5.35233118 34.4953408,5.56136606 34.2374832,5.56136606 L14.4434133,5.56136606 C14.1855557,5.56136606 13.9765208,5.35233118 13.9765208,5.09447357 L13.9765208,2.03252749 C13.9765208,1.77466989 14.1855557,1.56563501 14.4434133,1.56563501 Z" id="Rectangle-10-Copy-9" fill="#ECF0F3"></path>
                            <path d="M1.20755417,11.3052295 L17.7550926,11.3052295 C18.0129502,11.3052295 18.2219851,11.5142643 18.2219851,11.7721219 L18.2219851,14.834068 C18.2219851,15.0919256 18.0129502,15.3009605 17.7550926,15.3009605 L1.20755417,15.3009605 C0.949696573,15.3009605 0.740661686,15.0919256 0.740661686,14.834068 L0.740661686,11.7721219 C0.740661686,11.5142643 0.949696573,11.3052295 1.20755417,11.3052295 Z" id="Rectangle-10-Copy-11" fill="#ECF0F3"></path>
                            <path d="M42.9129971,11.3052295 L59.4605355,11.3052295 C59.7183931,11.3052295 59.927428,11.5142643 59.927428,11.7721219 L59.927428,14.834068 C59.927428,15.0919256 59.7183931,15.3009605 59.4605355,15.3009605 L42.9129971,15.3009605 C42.6551395,15.3009605 42.4461046,15.0919256 42.4461046,14.834068 L42.4461046,11.7721219 C42.4461046,11.5142643 42.6551395,11.3052295 42.9129971,11.3052295 Z" id="Rectangle-10-Copy-12" fill="#ECF0F3"></path>
                            <path d="M96.1061668,11.3052295 L112.653705,11.3052295 C112.911563,11.3052295 113.120598,11.5142643 113.120598,11.7721219 L113.120598,14.834068 C113.120598,15.0919256 112.911563,15.3009605 112.653705,15.3009605 L96.1061668,15.3009605 C95.8483092,15.3009605 95.6392743,15.0919256 95.6392743,14.834068 L95.6392743,11.7721219 C95.6392743,11.5142643 95.8483092,11.3052295 96.1061668,11.3052295 Z" id="Rectangle-10-Copy-13" fill="#ECF0F3"></path>
                            <path d="M96.1061668,0.31696905 L112.653705,0.31696905 C112.911563,0.31696905 113.120598,0.526003937 113.120598,0.783861538 L113.120598,6.09340634 C113.120598,6.35126394 112.911563,6.56029883 112.653705,6.56029883 L96.1061668,6.56029883 C95.8483092,6.56029883 95.6392743,6.35126394 95.6392743,6.09340634 L95.6392743,0.783861538 C95.6392743,0.526003937 95.8483092,0.31696905 96.1061668,0.31696905 Z" id="Rectangle-10-Copy-10" fill="#ECF0F3"></path>
                        </g>
                        <g id="分组" transform="translate(9.000000, 209.000000)" fill-rule="nonzero">
                            <rect id="矩形-copy-7" fill="#03C087" opacity="0.5" x="0" y="0" width="10.7385272" height="6.24332978" rx="0.499466382"></rect>
                            <rect id="矩形-copy-9" fill="#ECF0F3" x="41.7054429" y="17.2315902" width="36.7107791" height="6.24332978" rx="0.499466382"></rect>
                            <path d="M13.7027516,1.24866596 L33.4968215,1.24866596 C33.7546791,1.24866596 33.963714,1.45770084 33.963714,1.71555844 L33.963714,4.77750452 C33.963714,5.03536212 33.7546791,5.24439701 33.4968215,5.24439701 L13.7027516,5.24439701 C13.444894,5.24439701 13.2358591,5.03536212 13.2358591,4.77750452 L13.2358591,1.71555844 C13.2358591,1.45770084 13.444894,1.24866596 13.7027516,1.24866596 Z" id="Rectangle-10-Copy-14" fill="#ECF0F3"></path>
                            <path d="M0.466892488,10.9882604 L17.0144309,10.9882604 C17.2722885,10.9882604 17.4813234,11.1972953 17.4813234,11.4551529 L17.4813234,14.517099 C17.4813234,14.7749566 17.2722885,14.9839915 17.0144309,14.9839915 L0.466892488,14.9839915 C0.209034887,14.9839915 -6.34555366e-16,14.7749566 -6.66133815e-16,14.517099 L-5.55111512e-17,11.4551529 C-8.70895998e-17,11.1972953 0.209034887,10.9882604 0.466892488,10.9882604 Z" id="Rectangle-10-Copy-15" fill="#ECF0F3"></path>
                            <path d="M42.1723354,10.9882604 L58.7198738,10.9882604 C58.9777314,10.9882604 59.1867663,11.1972953 59.1867663,11.4551529 L59.1867663,14.517099 C59.1867663,14.7749566 58.9777314,14.9839915 58.7198738,14.9839915 L42.1723354,14.9839915 C41.9144778,14.9839915 41.7054429,14.7749566 41.7054429,14.517099 L41.7054429,11.4551529 C41.7054429,11.1972953 41.9144778,10.9882604 42.1723354,10.9882604 Z" id="Rectangle-10-Copy-16" fill="#ECF0F3"></path>
                            <path d="M95.3655051,10.9882604 L111.913043,10.9882604 C112.170901,10.9882604 112.379936,11.1972953 112.379936,11.4551529 L112.379936,14.517099 C112.379936,14.7749566 112.170901,14.9839915 111.913043,14.9839915 L95.3655051,14.9839915 C95.1076475,14.9839915 94.8986126,14.7749566 94.8986126,14.517099 L94.8986126,11.4551529 C94.8986126,11.1972953 95.1076475,10.9882604 95.3655051,10.9882604 Z" id="Rectangle-10-Copy-17" fill="#ECF0F3"></path>
                            <path d="M95.3655051,0 L111.913043,-5.55111512e-17 C112.170901,-1.02878824e-16 112.379936,0.209034887 112.379936,0.466892488 L112.379936,5.77643729 C112.379936,6.03429489 112.170901,6.24332978 111.913043,6.24332978 L95.3655051,6.24332978 C95.1076475,6.24332978 94.8986126,6.03429489 94.8986126,5.77643729 L94.8986126,0.466892488 C94.8986126,0.209034887 95.1076475,3.24923429e-16 95.3655051,2.77555756e-16 Z" id="Rectangle-10-Copy-18" fill="#ECF0F3"></path>
                        </g>
                        <text id="BTC/USDT" font-family="Helvetica" font-size="6.49306297" font-weight="normal" fill="#1F3F59">
                            <tspan x="49.4471718" y="30.4770544">BTC/USDT</tspan>
                        </text>
                        <path d="M5,242 L124.372465,242 L124.372465,244.747065 C124.372465,252.4708 118.111141,258.732124 110.387407,258.732124 L18.9850587,258.732124 C11.2613241,258.732124 5,252.4708 5,244.747065 L5,242 Z" id="矩形" fill="" fill-rule="nonzero"></path>
                        <circle id="椭圆形" fill="#FFFFFF" fill-rule="nonzero" cx="17.7449306" cy="249.744931" r="4.74493063"></circle>
                        <circle id="椭圆形-copy" fill="#FFFFFF" fill-rule="nonzero" cx="41.7449306" cy="249.744931" r="4.74493063"></circle>
                        <circle id="椭圆形-copy-2" fill="" fill-rule="nonzero" cx="64.7449306" cy="249.744931" r="4.74493063"></circle>
                        <circle id="椭圆形-copy-3" fill="#FFFFFF" fill-rule="nonzero" cx="88.7449306" cy="249.744931" r="4.74493063"></circle>
                        <circle id="椭圆形-copy-4" fill="#FFFFFF" fill-rule="nonzero" cx="112.744931" cy="249.744931" r="4.74493063"></circle>
                        <path d="M74.638034,137.855923 L96.1794687,137.855923 C96.4375382,137.855923 96.6467449,138.06513 96.6467449,138.323199 L96.6467449,145.176584 C96.6467449,145.434654 96.4375382,145.643861 96.1794687,145.643861 L74.638034,145.643861 C74.3799644,145.643861 74.1707577,145.434654 74.1707577,145.176584 L74.1707577,138.323199 C74.1707577,138.06513 74.3799644,137.855923 74.638034,137.855923 Z" id="Rectangle-13" fill="#ECF0F3" fill-rule="nonzero"></path>
                        <path d="M5.96140644,151.341515 L124.149586,151.341515 C124.407656,151.341515 124.616862,151.550722 124.616862,151.808792 L124.616862,154.370504 C124.616862,154.628573 124.407656,154.83778 124.149586,154.83778 L5.96140644,154.83778 C5.7033369,154.83778 5.4941302,154.628573 5.4941302,154.370504 L5.4941302,151.808792 C5.4941302,151.550722 5.7033369,151.341515 5.96140644,151.341515 Z" id="Rectangle-13-Copy-2" fill="#F7F7FB" fill-rule="nonzero"></path>
                        <g id="Group-9" transform="translate(8.740662, 61.187834)" fill="#FFFFFF" stroke="#ECF0F3" stroke-width="0.65">
                            <path d="M0.467276241,0.325 C0.388699243,0.325 0.325,0.388699243 0.325,0.467276241 L0.325,11.9934235 C0.325,12.0720005 0.388699243,12.1356998 0.467276241,12.1356998 L61.8362226,12.1356998 C61.9147996,12.1356998 61.9784988,12.0720005 61.9784988,11.9934235 L61.9784988,0.467276241 C61.9784988,0.388699243 61.9147996,0.325 61.8362226,0.325 L0.467276241,0.325 Z" id="Rectangle-2-Copy-3"></path>
                        </g>
                        <g id="Group-13" transform="translate(8.740662, 83.663821)" fill="#FFFFFF" stroke="#ECF0F3" stroke-width="0.65">
                            <path d="M0.467276241,0.325 C0.388699243,0.325 0.325,0.388699243 0.325,0.467276241 L0.325,11.9934235 C0.325,12.0720005 0.388699243,12.1356998 0.467276241,12.1356998 L61.8362226,12.1356998 C61.9147996,12.1356998 61.9784988,12.0720005 61.9784988,11.9934235 L61.9784988,0.467276241 C61.9784988,0.388699243 61.9147996,0.325 61.8362226,0.325 L0.467276241,0.325 Z" id="Rectangle-2-Copy-4"></path>
                        </g>
                        <g id="Group-10" opacity="0.5" transform="translate(8.740662, 133.110993)">
                            <path d="M0.467276241,0 L61.8362226,-5.55111512e-17 C62.0942921,-1.02917757e-16 62.3034988,0.209206699 62.3034988,0.467276241 L62.3034988,11.9934235 C62.3034988,12.2514931 62.0942921,12.4606998 61.8362226,12.4606998 L0.467276241,12.4606998 C0.209206699,12.4606998 1.47489434e-15,12.2514931 1.44328993e-15,11.9934235 L-5.55111512e-17,0.467276241 C-8.71155551e-17,0.209206699 0.209206699,-2.85660302e-16 0.467276241,-3.33066907e-16 Z" id="Rectangle-2-Copy-5" fill="url(#linearGradient-1)"></path>
                            <text id="买入" font-family="PingFangSC-Regular, PingFang SC" font-size="4.9842799" font-weight="normal" line-spacing="4.36124492" fill="#FFFFFF">
                                <tspan x="26.2219851" y="7.99573106"></tspan>
                            </text>
                        </g>
                        <g id="Group-14" transform="translate(7.991462, 106.338141)">
                            <rect id="Rectangle-15" fill="#E8EBEE" x="0.749199573" y="3.73820993" width="59.1883239" height="1" rx="0.5"></rect>
                            <g id="Group-10-Copy-4" transform="translate(59.626006, 1.401829)">
                                <path d="M0.311517494,0 L3.11517494,0 C3.2872213,-3.16044038e-17 3.42669243,0.139471133 3.42669243,0.311517494 L3.42669243,4.9842799 C3.42669243,5.15632627 3.2872213,5.2957974 3.11517494,5.2957974 L0.311517494,5.2957974 C0.139471133,5.2957974 -3.44415487e-17,5.15632627 -5.55111512e-17,4.9842799 L0,0.311517494 C-2.10696026e-17,0.139471133 0.139471133,-2.39067474e-17 0.311517494,-5.55111512e-17 Z" id="Rectangle-4-Copy-11" fill="#FFFFFF"></path>
                                <rect id="Rectangle-4-Copy-11" fill="#E7EBEE" x="0.623034988" y="0.661974675" width="2.18062246" height="3.97184805" rx="0.155758747"></rect>
                            </g>
                            <g id="Group-10-Copy-5" transform="translate(44.828925, 1.401829)">
                                <path d="M0.311517494,0 L3.11517494,0 C3.2872213,-3.16044038e-17 3.42669243,0.139471133 3.42669243,0.311517494 L3.42669243,4.9842799 C3.42669243,5.15632627 3.2872213,5.2957974 3.11517494,5.2957974 L0.311517494,5.2957974 C0.139471133,5.2957974 -3.44415487e-17,5.15632627 -5.55111512e-17,4.9842799 L0,0.311517494 C-2.10696026e-17,0.139471133 0.139471133,-2.39067474e-17 0.311517494,-5.55111512e-17 Z" id="Rectangle-4-Copy-11" fill="#FFFFFF"></path>
                                <rect id="Rectangle-4-Copy-11" fill="#E7EBEE" x="0.623034988" y="0.661974675" width="2.18062246" height="3.97184805" rx="0.155758747"></rect>
                            </g>
                            <g id="Group-10-Copy-6" transform="translate(30.187603, 1.401829)">
                                <path d="M0.311517494,0 L3.11517494,0 C3.2872213,-3.16044038e-17 3.42669243,0.139471133 3.42669243,0.311517494 L3.42669243,4.9842799 C3.42669243,5.15632627 3.2872213,5.2957974 3.11517494,5.2957974 L0.311517494,5.2957974 C0.139471133,5.2957974 -3.44415487e-17,5.15632627 -5.55111512e-17,4.9842799 L0,0.311517494 C-2.10696026e-17,0.139471133 0.139471133,-2.39067474e-17 0.311517494,-5.55111512e-17 Z" id="Rectangle-4-Copy-11" fill="#FFFFFF"></path>
                                <rect id="Rectangle-4-Copy-11" fill="#ECF0F3" x="0.623034988" y="0.623034988" width="2.18062246" height="3.89396868" rx="0.155758747"></rect>
                            </g>
                            <g id="Group-15" transform="translate(15.390522, 1.401829)">
                                <path d="M0.311517494,0 L3.11517494,0 C3.2872213,-3.16044038e-17 3.42669243,0.139471133 3.42669243,0.311517494 L3.42669243,4.9842799 C3.42669243,5.15632627 3.2872213,5.2957974 3.11517494,5.2957974 L0.311517494,5.2957974 C0.139471133,5.2957974 -3.44415487e-17,5.15632627 -5.55111512e-17,4.9842799 L0,0.311517494 C-2.10696026e-17,0.139471133 0.139471133,-2.39067474e-17 0.311517494,-5.55111512e-17 Z" id="Rectangle-4-Copy-11" fill="#FFFFFF"></path>
                                <path d="M1.01243186,0.70610632 L2.57001933,0.70610632 C2.74206569,0.70610632 2.88153682,0.845577453 2.88153682,1.01762381 L2.88153682,4.27817358 C2.88153682,4.45021995 2.74206569,4.58969108 2.57001933,4.58969108 L1.01243186,4.58969108 C0.840385494,4.58969108 0.700914362,4.45021995 0.700914362,4.27817358 L0.700914362,1.01762381 C0.700914362,0.845577453 0.840385494,0.70610632 1.01243186,0.70610632 Z" id="Rectangle-4-Copy-11" fill="#ECF0F3"></path>
                            </g>
                            <g id="Group-17" transform="translate(0.000000, 1.401829)">
                                <path d="M0.311517494,0 L3.11517494,0 C3.2872213,-3.16044038e-17 3.42669243,0.139471133 3.42669243,0.311517494 L3.42669243,4.9842799 C3.42669243,5.15632627 3.2872213,5.2957974 3.11517494,5.2957974 L0.311517494,5.2957974 C0.139471133,5.2957974 -3.44415487e-17,5.15632627 -5.55111512e-17,4.9842799 L0,0.311517494 C-2.10696026e-17,0.139471133 0.139471133,-2.39067474e-17 0.311517494,-5.55111512e-17 Z" id="Rectangle-4-Copy-11" fill="#FFFFFF"></path>
                                <path d="M0.934552482,0.70610632 L2.49213995,0.70610632 C2.66418631,0.70610632 2.80365745,0.845577453 2.80365745,1.01762381 L2.80365745,4.27817358 C2.80365745,4.45021995 2.66418631,4.58969108 2.49213995,4.58969108 L0.934552482,4.58969108 C0.762506121,4.58969108 0.623034988,4.45021995 0.623034988,4.27817358 L0.623034988,1.01762381 C0.623034988,0.845577453 0.762506121,0.70610632 0.934552482,0.70610632 Z" id="Rectangle-4-Copy-11" fill="#ECF0F3"></path>
                            </g>
                            <g id="Group-7" transform="translate(34.704606, 0.000000)" fill="#03C087">
                                <rect id="Rectangle-17" x="0" y="0" width="6.23034988" height="8.09945484" rx="0.311517494"></rect>
                            </g>
                        </g>
                        <path d="M9.20793793,36.7139808 L39.272929,36.7139808 C39.5309985,36.7139808 39.7402052,36.9231875 39.7402052,37.181257 C39.7402052,37.2246747 39.734154,37.2678805 39.7222263,37.3096277 L36.8740663,47.2781875 C36.8167513,47.4787899 36.6333987,47.6170931 36.424769,47.6170931 L9.20793793,47.6170931 C8.94986839,47.6170931 8.74066169,47.4078864 8.74066169,47.1498168 L8.74066169,37.181257 C8.74066169,36.9231875 8.94986839,36.7139808 9.20793793,36.7139808 Z" id="Rectangle-2-Copy-3" fill="#03C087" opacity="0.5"></path>
                        <text id="买入" font-family="PingFangSC-Regular, PingFang SC" font-size="4.9842799" font-weight="normal" line-spacing="4.36124492" fill="#FFFFFF">
                            <tspan x="19" y="44.7854856"></tspan>
                        </text>
                        <path d="M43.2727468,36.7139808 L70.4895778,36.7139808 C70.7476474,36.7139808 70.9568541,36.9231875 70.9568541,37.181257 L70.9568541,47.1498168 C70.9568541,47.4078864 70.7476474,47.6170931 70.4895778,47.6170931 L40.4245868,47.6170931 C40.1665173,47.6170931 39.9573106,47.4078864 39.9573106,47.1498168 C39.9573106,47.1063992 39.9633618,47.0631933 39.9752895,47.0214462 L42.8234495,37.0528864 C42.8807644,36.852284 43.0641171,36.7139808 43.2727468,36.7139808 Z" id="Rectangle-2-Copy-6" fill="#ECF0F3"></path>
                        <rect id="矩形-copy" fill="" fill-rule="nonzero" x="8.74066169" y="25.4759872" width="5.99359658" height="5.99359658" rx="0.499466382"></rect>
                        <rect id="矩形-copy-2" fill="" fill-rule="nonzero" x="115.127001" y="25.226254" width="5.99359658" height="5.99359658" rx="0.499466382"></rect>
                        <rect id="矩形-copy-3" fill="" fill-rule="nonzero" x="106.636073" y="25.226254" width="5.99359658" height="5.99359658" rx="0.499466382"></rect>
                        <path d="M9.20755417,51.9477054 L25.7550926,51.9477054 C26.0129502,51.9477054 26.2219851,52.1567403 26.2219851,52.4145979 L26.2219851,56.4754768 C26.2219851,56.7333344 26.0129502,56.9423693 25.7550926,56.9423693 L9.20755417,56.9423693 C8.94969657,56.9423693 8.74066169,56.7333344 8.74066169,56.4754768 L8.74066169,52.4145979 C8.74066169,52.1567403 8.94969657,51.9477054 9.20755417,51.9477054 Z" id="Rectangle-10-Copy" fill="#ECF0F3" fill-rule="nonzero"></path>
                        <path d="M9.20755417,75.1728922 L25.7550926,75.1728922 C26.0129502,75.1728922 26.2219851,75.3819271 26.2219851,75.6397847 L26.2219851,78.7017308 C26.2219851,78.9595884 26.0129502,79.1686233 25.7550926,79.1686233 L9.20755417,79.1686233 C8.94969657,79.1686233 8.74066169,78.9595884 8.74066169,78.7017308 L8.74066169,75.6397847 C8.74066169,75.3819271 8.94969657,75.1728922 9.20755417,75.1728922 Z" id="Rectangle-10-Copy-2" fill="#ECF0F3" fill-rule="nonzero"></path>
                        <path d="M74.6376502,36.7139808 L91.1851886,36.7139808 C91.4430462,36.7139808 91.6520811,36.9230157 91.6520811,37.1808733 L91.6520811,40.2428194 C91.6520811,40.500677 91.4430462,40.7097118 91.1851886,40.7097118 L74.6376502,40.7097118 C74.3797926,40.7097118 74.1707577,40.500677 74.1707577,40.2428194 L74.1707577,37.1808733 C74.1707577,36.9230157 74.3797926,36.7139808 74.6376502,36.7139808 Z" id="Rectangle-10-Copy-7" fill="#ECF0F3" fill-rule="nonzero"></path>
                        <path d="M104.106167,36.7139808 L120.653705,36.7139808 C120.911563,36.7139808 121.120598,36.9230157 121.120598,37.1808733 L121.120598,40.2428194 C121.120598,40.500677 120.911563,40.7097118 120.653705,40.7097118 L104.106167,40.7097118 C103.848309,40.7097118 103.639274,40.500677 103.639274,40.2428194 L103.639274,37.1808733 C103.639274,36.9230157 103.848309,36.7139808 104.106167,36.7139808 Z" id="Rectangle-10-Copy-8" fill="#ECF0F3" fill-rule="nonzero"></path>
                        <path d="M9.20755417,125.369264 L43.7358823,125.369264 C43.9937399,125.369264 44.2027748,125.578298 44.2027748,125.836156 L44.2027748,129.897035 C44.2027748,130.154893 43.9937399,130.363927 43.7358823,130.363927 L9.20755417,130.363927 C8.94969657,130.363927 8.74066169,130.154893 8.74066169,129.897035 L8.74066169,125.836156 C8.74066169,125.578298 8.94969657,125.369264 9.20755417,125.369264 Z" id="Rectangle-10-Copy-6" fill="#ECF0F3" fill-rule="nonzero"></path>
                        <path d="M9.20755417,97.8986126 L25.7550926,97.8986126 C26.0129502,97.8986126 26.2219851,98.1076475 26.2219851,98.3655051 L26.2219851,101.427451 C26.2219851,101.685309 26.0129502,101.894344 25.7550926,101.894344 L9.20755417,101.894344 C8.94969657,101.894344 8.74066169,101.685309 8.74066169,101.427451 L8.74066169,98.3655051 C8.74066169,98.1076475 8.94969657,97.8986126 9.20755417,97.8986126 Z" id="Rectangle-10-Copy-3" fill="#ECF0F3" fill-rule="nonzero"></path>
                        <path d="M9.20755417,114.88047 L25.7550926,114.88047 C26.0129502,114.88047 26.2219851,115.089504 26.2219851,115.347362 L26.2219851,118.409308 C26.2219851,118.667166 26.0129502,118.876201 25.7550926,118.876201 L9.20755417,118.876201 C8.94969657,118.876201 8.74066169,118.667166 8.74066169,118.409308 L8.74066169,115.347362 C8.74066169,115.089504 8.94969657,114.88047 9.20755417,114.88047 Z" id="Rectangle-10-Copy-4" fill="#ECF0F3" fill-rule="nonzero"></path>
                        <path d="M53.6600622,114.88047 L70.2076006,114.88047 C70.4654582,114.88047 70.6744931,115.089504 70.6744931,115.347362 L70.6744931,118.409308 C70.6744931,118.667166 70.4654582,118.876201 70.2076006,118.876201 L53.6600622,118.876201 C53.4022046,118.876201 53.1931697,118.667166 53.1931697,118.409308 L53.1931697,115.347362 C53.1931697,115.089504 53.4022046,114.88047 53.6600622,114.88047 Z" id="Rectangle-10-Copy-5" fill="#ECF0F3" fill-rule="nonzero"></path>
                        <g id="Group-5" opacity="0.25" transform="translate(74.046670, 59.884133)" fill="#03C087">
                            <g id="Group-4-Copy" transform="translate(0.124088, 0.055035)">
                                <polygon id="Rectangle-6" points="37.7097118 0 46.7001067 0 46.7001067 7.55118405 37.7097118 7.55118405"></polygon>
                                <polygon id="Rectangle-6-Copy" points="33.2145144 7.49199573 46.7896209 7.49199573 46.7896209 15.0431798 33.2145144 15.0431798"></polygon>
                                <polygon id="Rectangle-6-Copy-2" points="28.002725 15.1023681 46.7987663 15.1023681 46.7987663 22.6535522 28.002725 22.6535522"></polygon>
                                <polygon id="Rectangle-6-Copy-3" points="23.5825915 22.6535522 46.7927961 22.6535522 46.7927961 30.2047362 23.5825915 30.2047362"></polygon>
                                <polygon id="Rectangle-6-Copy-4" points="20.2283885 30.2047362 46.7629455 30.2047362 46.7629455 37.7559203 20.2283885 37.7559203"></polygon>
                                <polygon id="Rectangle-6" points="0.0124606998 67.9606565 46.918169 67.9606565 46.918169 75.5118405 0.0124606998 75.5118405"></polygon>
                                <polygon id="Rectangle-6-Copy" points="4.17952638 60.4094724 46.918169 60.4094724 46.918169 67.9606565 4.17952638 67.9606565"></polygon>
                                <polygon id="Rectangle-6-Copy-2" points="8.84346246 52.8582884 46.918169 52.8582884 46.918169 60.4094724 8.84346246 60.4094724"></polygon>
                                <rect id="Rectangle-6-Copy-3" x="12.8869595" y="45.3071043" width="34.0312094" height="7.55118405"></rect>
                                <polygon id="Rectangle-6-Copy-4" points="16.4823906 37.7559203 46.918169 37.7559203 46.918169 45.3071043 16.4823906 45.3071043"></polygon>
                            </g>
                        </g>
                        <text id="6528.20" opacity="0.449999988" font-family="Roboto-Medium, Roboto" font-size="7.99146211" font-weight="400" fill="#03C087">
                            <tspan x="74.4204909" y="50.7065101">6528.20</tspan>
                        </text>
                        <text id="≈6529.57-USD" font-family="Roboto-Regular, Roboto" font-size="3.99573106" font-weight="normal" fill="#C5CFD5">
                            <tspan x="74.4204909" y="56.9466382">≈6529.57 USD</tspan>
                        </text>
                        <text id="6528.17" font-family="Roboto-Medium, Roboto" font-size="5.4941302" font-weight="400" fill="#1F4474">
                            <tspan x="11.73746" y="69.1846318">6528.17</tspan>
                        </text>
                        <text id="1.00000000" font-family="Roboto-Medium, Roboto" font-size="5.4941302" font-weight="400" fill="#1F4474">
                            <tspan x="10.7385272" y="91.7120194">1.00000000</tspan>
                        </text>
                        <text id="卖出" font-family="PingFangSC-Regular, PingFang SC" font-size="4.9842799" font-weight="normal" line-spacing="4.36124492" fill="#FFFFFF">
                            <tspan x="50" y="44.7854856"></tspan>
                        </text>
                        <path d="M126.991072,101.608063 C126.991105,116.554761 126.991105,131.616401 126.991105,147.13112 C126.991105,188.847575 126.98742,199.574998 126.999998,241.291453 C127.00076,243.798641 126.803587,246.25728 125.814546,248.538136 C123.174435,254.626501 118.796863,257.93897 112.660488,257.961982 C94.622332,258.029615 76.5837951,257.986398 58.5455122,257.986398 C45.4613287,257.986398 32.3771452,258.00071 19.2929617,257.979522 C12.9690688,257.969279 7.46575622,253.480811 5.69246942,246.857276 C5.31273349,245.438809 5.22329418,243.923383 5.02777273,242.448088 C4.9731436,242.035836 5.01595759,241.607587 5.01595759,241.186636 C5.01587284,185.497755 5.01674922,146.405897 5.01443802,101.767467 C5.0048422,101.519594 5,101.270501 5,101.020277 L5,23.9797225 C5,13.4975112 13.4975112,5 23.9797225,5 L30.5345376,5 C30.53638,5.00747246 30.5382225,5.01494375 30.5400652,5.02241385 C30.6287895,5.00806781 30.7110473,5.00088393 30.7865484,5.00112596 C32.3832433,5.00617739 32.9953436,5.64883033 33.1485593,7.41079386 C33.233552,8.38768246 33.2587068,9.37369167 33.3912142,10.3420209 C33.7661225,13.081715 35.7799044,15.0130414 38.2941146,15.0969511 C38.5056437,15.103967 38.7174268,15.0993365 38.92921,15.0993365 C56.9674928,15.0994768 75.0059027,15.0965301 93.0443126,15.1073346 C93.9918103,15.1078958 94.9075469,15.0025176 95.7530279,14.5219311 C97.3226624,13.6293731 98.3034457,12.238268 98.5336503,10.2777556 C98.6425274,9.35166187 98.6747967,8.41476368 98.7562322,7.48417977 C98.8900898,5.95615175 99.4457745,5.20862586 100.649848,5.03834146 C100.649103,5.0255658 100.648356,5.01278532 100.647609,5 L101.232339,5 C101.232339,5 101.232339,5 101.232339,5 L108.020277,5 C118.502489,5 127,13.4975112 127,23.9797225 L127,101.020277 C127,101.216919 126.99701,101.412861 126.991072,101.608063 Z M130.538167,67.0277104 C131.946768,67.4117902 131.997305,67.4695303 131.997793,68.9556638 C132.000837,78.5339129 132.000472,88.1120271 131.99828,97.6901413 C131.997914,99.236848 131.95992,99.2825814 130.538167,99.7384316 L130.538167,101.584901 C130.538045,157.120372 130.532444,184.53269 130.547057,240.068026 C130.548397,245.243861 129.232956,249.914335 126.394565,254.008217 C122.92208,259.016767 118.346533,261.992677 112.661593,262.78377 C111.77895,262.906671 110.884981,262.989234 109.996127,262.989638 C80.5266988,263.000296 51.0571489,263.003669 21.5877207,262.995304 C11.91201,262.992606 3.71954938,255.847132 1.5459425,245.441364 C1.16550954,243.620257 1.01499253,241.70458 1.00366722,239.830725 C0.948989115,230.88249 0.978946384,221.933716 0.978946384,212.985077 C0.978946384,169.006534 0.978946384,153.150874 0.978824606,109.17233 C0.978824606,108.722686 1.01499253,108.267375 0.962019309,107.825286 C0.92913938,107.55129 0.823801829,107.185153 0.639065337,107.055103 C0.065736793,106.651057 0.00192537474,106.072981 0.0024124848,105.418143 C0.00728358544,99.3474716 0.00716180792,93.2767997 0.00253426232,87.2059929 C0.00216892977,86.5520996 0.0721910014,85.9837372 0.632002241,85.5616137 C0.836832023,85.4072803 0.943265572,84.9754436 0.962628197,84.6603013 C1.00939076,83.8994268 0.96591619,83.1322118 0.982599709,82.3682345 C0.995751681,81.7693831 0.917205183,81.3218972 0.418039146,80.8767047 C0.101052273,80.5940749 0.0240888826,79.8349542 0.0212879998,79.2881769 C-0.00599016379,73.8923089 0.0047262576,68.4960362 0.0047262576,63.0998985 C0.0047262576,62.5602712 0.0138595713,62.020509 0.00265603984,61.4811516 C-0.0126879272,60.7413226 0.0164168991,60.0564007 0.704338086,59.6089147 C0.878114601,59.4958628 0.964211305,59.0795404 0.966159745,58.8014974 C0.98503526,56.1036309 0.988810363,53.4053597 0.961288644,50.707628 C0.958244206,50.4058415 0.806752977,49.9951851 0.59826987,49.8291148 C0.0960593944,49.429251 0.00180359723,48.9125579 0.0031431499,48.3021046 C0.00874491563,45.7839339 -0.0132968147,43.2654934 0.0225057749,40.7477275 C0.0289599832,40.2899887 0.133566869,39.6213905 0.410245385,39.4240218 C1.02461295,38.9857096 0.980894824,38.4227434 0.980529492,37.7981249 C0.979601592,35.7242832 1.04743236,30.3353364 1.18402179,21.6312844 L1.18402237,21.6312844 C1.37252724,9.61896304 11.1721842,-0.0157727655 23.1859747,-0.000390949811 L108.594938,0.108961463 C120.72263,0.124489112 130.545288,9.96132641 130.543322,22.0890282 C130.539823,43.6675541 130.538105,58.0790222 130.538167,65.3234326 L130.538167,67.0277104 Z" id="Fill-1" fill="#4b5775"></path>
                        <path d="M64.5199989,-36.1867731 L64.5199989,43.5791954 C64.6500718,47.573828 64.7965742,51.0056436 64.9595059,53.8746419 C65.0499644,55.4674902 65.6197855,56.4200965 66.236895,57.5084804 C66.5723989,58.100202 67.1787665,58.9493744 68.0559977,60.0559977 C63.7677053,57.5911362 61.4351384,54.6816045 61.058297,51.3274026 C60.7188006,48.3056023 60.5983025,45.8841167 60.6968026,44.0629459 L60.6635754,44.0629459 L60.6635754,-38.1835572 C60.6741479,-39.7678912 60.8055175,-41.6850322 61.058297,-43.9349803 C61.4351384,-47.2891822 63.7677053,-50.1987139 68.0559977,-52.6635754 C67.1787665,-51.5569521 66.5723989,-50.7077797 66.236895,-50.1160581 C65.6197855,-49.0276741 65.0499644,-48.0750679 64.9595059,-46.4822196 C64.7965742,-43.6132213 64.6500718,-40.1814056 64.5199989,-36.1867726 Z" id="Combined-Shape-Copy" fill="url(#linearGradient-2)" opacity="0.200000003" transform="translate(64.359787, 3.696211) scale(1, -1) rotate(-90.000000) translate(-64.359787, -3.696211) "></path>
                        <g id="shadow" transform="translate(5.000000, 254.000000)" fill="url(#linearGradient-3)" opacity="0.300000012">
                            <path d="M61.6849545,-33.7249292 L61.6849545,46.0674458 L61.7175812,46.0674458 C61.796179,50.4025382 62.0032562,54.084631 62.3388129,57.1137241 C62.569574,59.1968203 63.5216674,61.889187 65.1950932,65.1908243 C60.1694175,61.5665842 57.392118,57.971584 56.8631949,54.4058236 C56.3838151,51.1740613 56.2155323,48.5881962 56.3583467,46.6482282 L56.3091757,46.6482282 L56.3091757,-35.8228771 L56.4036979,-35.8228771 C56.5053395,-37.458446 56.7657583,-39.7891688 57.1849545,-42.8150455 C57.8395851,-47.5403545 60.6729184,-51.8736879 65.6849545,-55.8150455 C63.6849545,-51.8712165 62.4132855,-48.4928849 61.8699474,-45.6800507 C61.3671007,-43.0768383 61.3671007,-39.0917978 61.8699474,-33.7249292 L61.6849545,-33.7249292 Z" id="Combined-Shape-Copy" transform="translate(60.997065, 4.687889) scale(-1, 1) rotate(-90.000000) translate(-60.997065, -4.687889) "></path>
                        </g>
                        <g id="Group" transform="translate(53.421761, 9.389998)" fill="#FFFFFF">
                            <rect id="Rectangle-7" x="0" y="0" width="21.1625756" height="2.40483814" rx="1.20241907"></rect>
                            <circle id="Oval" cx="24.7698328" cy="1.20241907" r="1.20241907"></circle>
                        </g>
                    </g>
                </g>
            </g>
        </g>
    </g>
</svg>