<?xml version="1.0" encoding="UTF-8"?>
<svg width="531px" height="331px" viewBox="0 0 531 331" version="1.1" xmlns="http://www.w3.org/2000/svg" xmlns:xlink="http://www.w3.org/1999/xlink">
    <!-- Generator: Sketch 52.5 (67469) - http://www.bohemiancoding.com/sketch -->
    <title>分组 10</title>
    <desc>Created with Sketch.</desc>
    <defs>
        <path d="M4,0 L513.470555,0 C515.679694,6.23816945e-14 517.470555,1.790861 517.470555,4 L517.470555,315.289797 C517.470555,316.394367 516.575125,317.289797 515.470555,317.289797 L2,317.289797 C0.8954305,317.289797 3.15290241e-14,316.394367 0,315.289797 L0,4 C-2.705415e-16,1.790861 1.790861,4.05812251e-16 4,0 Z" id="path-1"></path>
        <filter x="-2.4%" y="-2.7%" width="104.8%" height="107.9%" filterUnits="objectBoundingBox" id="filter-2">
            <feOffset dx="0" dy="4" in="SourceAlpha" result="shadowOffsetOuter1"></feOffset>
            <feGaussianBlur stdDeviation="3.5" in="shadowOffsetOuter1" result="shadowBlurOuter1"></feGaussianBlur>
            <feColorMatrix values="0 0 0 0 0.00888488681   0 0 0 0 0.0514746098   0 0 0 0 0.0967261905  0 0 0 0.254925272 0" type="matrix" in="shadowBlurOuter1"></feColorMatrix>
        </filter>
        <rect id="path-3" x="5.68434189e-14" y="-5.68434189e-14" width="511.470555" height="301.769408" rx="2"></rect>
        <filter x="-721.4%" y="-5050.0%" width="1542.9%" height="10200.0%" filterUnits="objectBoundingBox" id="filter-5">
            <feOffset dx="-10" dy="13" in="SourceAlpha" result="shadowOffsetOuter1"></feOffset>
            <feGaussianBlur stdDeviation="33" in="shadowOffsetOuter1" result="shadowBlurOuter1"></feGaussianBlur>
            <feColorMatrix values="0 0 0 0 0   0 0 0 0 0   0 0 0 0 0  0 0 0 0.320170969 0" type="matrix" in="shadowBlurOuter1" result="shadowMatrixOuter1"></feColorMatrix>
            <feMerge>
                <feMergeNode in="shadowMatrixOuter1"></feMergeNode>
                <feMergeNode in="SourceGraphic"></feMergeNode>
            </feMerge>
        </filter>
        <circle id="path-6" cx="3.5" cy="3.5" r="3.5"></circle>
        <circle id="path-7" cx="3.5" cy="3.5" r="3.5"></circle>
    </defs>
    <g id="Page-1" stroke="none" stroke-width="1" fill="none" fill-rule="evenodd">
        <g id="1920-copy-4" transform="translate(-665.000000, -1718.000000)">
            <g id="分组-15" transform="translate(-760.000000, 1371.000000)">
                <g id="分组-27">
                    <g id="分组-10" transform="translate(1432.000000, 350.000000)">
                        <g id="Group-69-Copy">
                            <g id="Group-42">
                                <g id="Group-32">
                                    <g id="Group-24">
                                        <g id="Rectangle-10">
                                            <use fill="black" fill-opacity="1" filter="url(#filter-2)" xlink:href="#path-1"></use>
                                            <use fill="#cad1e4" fill-rule="evenodd" xlink:href="#path-1"></use><!--外边框背景颜色-->
                                        </g>
                                        <g id="Group-14" transform="translate(5.880347, 4.140173)">
                                            <ellipse id="Oval-7" fill="#EE6A5F" cx="2.64615625" cy="2.66154008" rx="2.64615625" ry="2.66154008"></ellipse>
                                            <ellipse id="Oval-7-Copy" fill="#F6C050" cx="11.4666771" cy="2.66154008" rx="2.64615625" ry="2.66154008"></ellipse>
                                            <ellipse id="Oval-7-Copy-2" fill="#60C553" cx="20.2871979" cy="2.66154008" rx="2.64615625" ry="2.66154008"></ellipse>
                                        </g>
                                    </g>
                                    <g id="photo-1433354359170-23a4ae7338c6" transform="translate(3.000000, 13.011974)">
                                        <mask id="mask-4" fill="white">
                                            <use xlink:href="#path-3"></use>
                                        </mask>
                                        <use id="Mask" fill="#111e38  " xlink:href="#path-3"></use><!--内边框背景颜色-->
                                    </g>
                                </g>
                            </g>
                        </g>
                        <rect id="矩形-copy-9" fill="#091234" fill-rule="nonzero" x="6" y="38" width="77" height="273" rx="1"></rect>
                        <rect id="矩形-copy-10" fill="#091234" fill-rule="nonzero" x="352" y="38" width="77" height="273" rx="1"></rect>
                        <rect id="矩形-copy-11" fill="#091234" fill-rule="nonzero" x="433" y="38" width="77" height="273" rx="1"></rect>
                        <g id="Group-54-Copy" transform="translate(519.000000, 96.000000)">
                            <g id="Group-68">
                                <g id="Device" filter="url(#filter-5)"></g>
                            </g>
                        </g>
                        <rect id="矩形-copy-12" fill="#091234" fill-rule="nonzero" x="87" y="38" width="261" height="170" rx="1"></rect>
                        <rect id="矩形-copy-12" fill="#050C25" fill-rule="nonzero" transform="translate(217.500000, 51.000000) scale(1, -1) translate(-217.500000, -51.000000) " x="87" y="38" width="261" height="26" rx="1"></rect>
                        <rect id="矩形-copy-112" fill="#050C25" fill-rule="nonzero" transform="translate(390.500000, 46.000000) scale(1, -1) translate(-390.500000, -46.000000) " x="352" y="38" width="77" height="16" rx="1"></rect>
                        <rect id="矩形-copy-126" fill="#050C25" fill-rule="nonzero" transform="translate(390.500000, 177.000000) scale(1, -1) translate(-390.500000, -177.000000) " x="352" y="169" width="77" height="16" rx="1"></rect>
                        <rect id="矩形-copy-153" fill="#050C25" fill-rule="nonzero" transform="translate(390.500000, 303.000000) scale(1, -1) translate(-390.500000, -303.000000) " x="352" y="295" width="77" height="16" rx="1"></rect>
                        <rect id="矩形-copy-109" fill="#112652" fill-rule="nonzero" x="358" y="58" width="18" height="4" rx="1"></rect>
                        <rect id="矩形-copy-128" fill="#112652" fill-rule="nonzero" x="358" y="174" width="18" height="6" rx="1"></rect>
                        <rect id="矩形-copy-129" fill="#0A1B3E" fill-rule="nonzero" x="381" y="175" width="18" height="4" rx="1"></rect>
                        <g id="分组-8" transform="translate(358.000000, 68.000000)" fill="#EF5656" fill-rule="nonzero" opacity="0.54671224">
                            <rect id="矩形-copy-143" x="0" y="0" width="18" height="4" rx="1"></rect>
                            <rect id="矩形-copy-147" x="0" y="40" width="18" height="4" rx="1"></rect>
                            <rect id="矩形-copy-145" x="0" y="20" width="18" height="4" rx="1"></rect>
                            <rect id="矩形-copy-148" x="0" y="60" width="18" height="4" rx="1"></rect>
                            <rect id="矩形-copy-151" x="0" y="80" width="18" height="4" rx="1"></rect>
                            <rect id="矩形-copy-144" x="0" y="10" width="18" height="4" rx="1"></rect>
                            <rect id="矩形-copy-149" x="0" y="50" width="18" height="4" rx="1"></rect>
                            <rect id="矩形-copy-146" x="0" y="30" width="18" height="4" rx="1"></rect>
                            <rect id="矩形-copy-150" x="0" y="70" width="18" height="4" rx="1"></rect>
                            <rect id="矩形-copy-152" x="0" y="90" width="18" height="4" rx="1"></rect>
                        </g>
                        <g id="分组-8-copy-2" opacity="0.288225446" transform="translate(381.000000, 68.000000)" fill="#446098" fill-rule="nonzero">
                            <rect id="矩形-copy-143" x="0" y="0" width="18" height="4" rx="1"></rect>
                            <rect id="矩形-copy-147" x="0" y="40" width="18" height="4" rx="1"></rect>
                            <rect id="矩形-copy-145" x="0" y="20" width="18" height="4" rx="1"></rect>
                            <rect id="矩形-copy-148" x="0" y="60" width="18" height="4" rx="1"></rect>
                            <rect id="矩形-copy-151" x="0" y="80" width="18" height="4" rx="1"></rect>
                            <rect id="矩形-copy-144" x="0" y="10" width="18" height="4" rx="1"></rect>
                            <rect id="矩形-copy-149" x="0" y="50" width="18" height="4" rx="1"></rect>
                            <rect id="矩形-copy-146" x="0" y="30" width="18" height="4" rx="1"></rect>
                            <rect id="矩形-copy-150" x="0" y="70" width="18" height="4" rx="1"></rect>
                            <rect id="矩形-copy-152" x="0" y="90" width="18" height="4" rx="1"></rect>
                        </g>
                        <g id="分组-8-copy-4" opacity="0.288225446" transform="translate(381.000000, 195.000000)" fill="#446098" fill-rule="nonzero">
                            <rect id="矩形-copy-143" x="0" y="0" width="18" height="4" rx="1"></rect>
                            <rect id="矩形-copy-147" x="0" y="40" width="18" height="4" rx="1"></rect>
                            <rect id="矩形-copy-145" x="0" y="20" width="18" height="4" rx="1"></rect>
                            <rect id="矩形-copy-148" x="0" y="60" width="18" height="4" rx="1"></rect>
                            <rect id="矩形-copy-151" x="0" y="80" width="18" height="4" rx="1"></rect>
                            <rect id="矩形-copy-144" x="0" y="10" width="18" height="4" rx="1"></rect>
                            <rect id="矩形-copy-149" x="0" y="50" width="18" height="4" rx="1"></rect>
                            <rect id="矩形-copy-146" x="0" y="30" width="18" height="4" rx="1"></rect>
                            <rect id="矩形-copy-150" x="0" y="70" width="18" height="4" rx="1"></rect>
                            <rect id="矩形-copy-152" x="0" y="90" width="18" height="4" rx="1"></rect>
                        </g>
                        <g id="分组-8-copy-3" opacity="0.288225446" transform="translate(404.000000, 68.000000)" fill="#446098" fill-rule="nonzero">
                            <rect id="矩形-copy-143" x="0" y="0" width="18" height="4" rx="1"></rect>
                            <rect id="矩形-copy-147" x="0" y="40" width="18" height="4" rx="1"></rect>
                            <rect id="矩形-copy-145" x="0" y="20" width="18" height="4" rx="1"></rect>
                            <rect id="矩形-copy-148" x="0" y="60" width="18" height="4" rx="1"></rect>
                            <rect id="矩形-copy-151" x="0" y="80" width="18" height="4" rx="1"></rect>
                            <rect id="矩形-copy-144" x="0" y="10" width="18" height="4" rx="1"></rect>
                            <rect id="矩形-copy-149" x="0" y="50" width="18" height="4" rx="1"></rect>
                            <rect id="矩形-copy-146" x="0" y="30" width="18" height="4" rx="1"></rect>
                            <rect id="矩形-copy-150" x="0" y="70" width="18" height="4" rx="1"></rect>
                            <rect id="矩形-copy-152" x="0" y="90" width="18" height="4" rx="1"></rect>
                        </g>
                        <g id="分组-8-copy-6" opacity="0.288225446" transform="translate(441.000000, 158.000000)" fill="#446098" fill-rule="nonzero">
                            <rect id="矩形-copy-143" x="0" y="0" width="64" height="4" rx="1"></rect>
                            <rect id="矩形-copy-147" x="0" y="40" width="64" height="4" rx="1"></rect>
                            <rect id="矩形-copy-145" x="0" y="20" width="64" height="4" rx="1"></rect>
                            <rect id="矩形-copy-148" x="0" y="60" width="64" height="4" rx="1"></rect>
                            <rect id="矩形-copy-160" x="0" y="110" width="64" height="4" rx="1"></rect>
                            <rect id="矩形-copy-151" x="0" y="80" width="64" height="4" rx="1"></rect>
                            <rect id="矩形-copy-161" x="0" y="130" width="64" height="4" rx="1"></rect>
                            <rect id="矩形-copy-144" x="0" y="10" width="64" height="4" rx="1"></rect>
                            <rect id="矩形-copy-149" x="0" y="50" width="64" height="4" rx="1"></rect>
                            <rect id="矩形-copy-162" x="0" y="100" width="64" height="4" rx="1"></rect>
                            <rect id="矩形-copy-146" x="0" y="30" width="64" height="4" rx="1"></rect>
                            <rect id="矩形-copy-150" x="0" y="70" width="64" height="4" rx="1"></rect>
                            <rect id="矩形-copy-163" x="0" y="120" width="64" height="4" rx="1"></rect>
                            <rect id="矩形-copy-152" x="0" y="90" width="64" height="4" rx="1"></rect>
                            <rect id="矩形-copy-164" x="0" y="140" width="64" height="4" rx="1"></rect>
                        </g>
                        <g id="分组-8-copy-7" opacity="0.288225446" transform="translate(441.000000, 58.000000)" fill="#446098" fill-rule="nonzero">
                            <rect id="矩形-copy-143" x="0" y="0" width="64" height="4" rx="1"></rect>
                            <rect id="矩形-copy-147" x="0" y="40" width="64" height="4" rx="1"></rect>
                            <rect id="矩形-copy-145" x="0" y="20" width="64" height="4" rx="1"></rect>
                            <rect id="矩形-copy-148" x="0" y="60" width="64" height="4" rx="1"></rect>
                            <rect id="矩形-copy-151" x="0" y="80" width="64" height="4" rx="1"></rect>
                            <rect id="矩形-copy-144" x="0" y="10" width="64" height="4" rx="1"></rect>
                            <rect id="矩形-copy-149" x="0" y="50" width="64" height="4" rx="1"></rect>
                            <rect id="矩形-copy-146" x="0" y="30" width="64" height="4" rx="1"></rect>
                            <rect id="矩形-copy-150" x="0" y="70" width="64" height="4" rx="1"></rect>
                            <rect id="矩形-copy-152" x="0" y="90" width="64" height="4" rx="1"></rect>
                        </g>
                        <g id="分组-8-copy-5" opacity="0.288225446" transform="translate(404.000000, 195.000000)" fill="#446098" fill-rule="nonzero">
                            <rect id="矩形-copy-143" x="0" y="0" width="18" height="4" rx="1"></rect>
                            <rect id="矩形-copy-147" x="0" y="40" width="18" height="4" rx="1"></rect>
                            <rect id="矩形-copy-145" x="0" y="20" width="18" height="4" rx="1"></rect>
                            <rect id="矩形-copy-148" x="0" y="60" width="18" height="4" rx="1"></rect>
                            <rect id="矩形-copy-151" x="0" y="80" width="18" height="4" rx="1"></rect>
                            <rect id="矩形-copy-144" x="0" y="10" width="18" height="4" rx="1"></rect>
                            <rect id="矩形-copy-149" x="0" y="50" width="18" height="4" rx="1"></rect>
                            <rect id="矩形-copy-146" x="0" y="30" width="18" height="4" rx="1"></rect>
                            <rect id="矩形-copy-150" x="0" y="70" width="18" height="4" rx="1"></rect>
                            <rect id="矩形-copy-152" x="0" y="90" width="18" height="4" rx="1"></rect>
                        </g>
                        <g id="分组-8-copy" opacity="0.62327939" transform="translate(358.000000, 195.000000)" fill="#0DA88B" fill-rule="nonzero">
                            <rect id="矩形-copy-143" x="0" y="0" width="18" height="4" rx="1"></rect>
                            <rect id="矩形-copy-147" x="0" y="40" width="18" height="4" rx="1"></rect>
                            <rect id="矩形-copy-145" x="0" y="20" width="18" height="4" rx="1"></rect>
                            <rect id="矩形-copy-148" x="0" y="60" width="18" height="4" rx="1"></rect>
                            <rect id="矩形-copy-151" x="0" y="80" width="18" height="4" rx="1"></rect>
                            <rect id="矩形-copy-144" x="0" y="10" width="18" height="4" rx="1"></rect>
                            <rect id="矩形-copy-149" x="0" y="50" width="18" height="4" rx="1"></rect>
                            <rect id="矩形-copy-146" x="0" y="30" width="18" height="4" rx="1"></rect>
                            <rect id="矩形-copy-150" x="0" y="70" width="18" height="4" rx="1"></rect>
                            <rect id="矩形-copy-152" x="0" y="90" width="18" height="4" rx="1"></rect>
                        </g>
                        <!--顶部LOGO-->
                        <!--g id="Group-54" transform="translate(40.000000, 20.000000)" fill-rule="nonzero">
                            <path d="M31.7044059,3.80448462 C32.0984225,3.80448462 32.417862,3.4684077 32.417862,3.05386923 C32.417862,2.63933077 32.0984225,2.30317692 31.7044059,2.30317692 C31.3103891,2.30317692 30.9909495,2.63933077 30.9909495,3.05386923 C30.9909495,3.4684077 31.3103891,3.80448462 31.7044059,3.80448462" id="Fill-1" fill="#3C7AD2"></path>
                            <path d="M4.04437106,3.05797692 C4.04437106,1.63136154 3.38385011,0.404515385 2.8814038,0.00505384615 C2.87935659,0.00374615385 2.84294531,-0.0177153847 2.84601614,0.0392846153 C2.84608927,0.0400538462 2.84543122,0.0402846153 2.84543122,0.040976923 C2.80360944,2.79551538 1.46611668,3.54205385 0.730799086,4.54774615 C-0.966127037,6.86851538 0.61206032,9.41297692 2.21905499,9.8832077 C3.11829643,10.1463615 2.01140838,9.4175923 1.86883412,7.87843847 C1.69650205,6.01805385 4.04437106,4.59805385 4.04437106,3.05797692" id="Fill-3" fill="#D7E2F2"></path>
                            <path d="M4.9260064,3.99573847 C4.91503914,3.98835385 4.89946565,3.98327692 4.88864463,4.0008923 C4.85910617,4.34773847 4.49981904,5.08935385 4.04438568,5.77043077 C2.49975811,8.08066153 3.37998964,9.1942 3.87497822,9.79235385 C4.16232019,10.1395846 3.87497822,9.79235385 4.59326001,9.4375077 C4.64963168,9.40973847 5.99487465,8.66596923 6.14059284,6.97143077 C6.28163168,5.33058462 5.28185712,4.29627692 4.9260064,3.99573847" id="Fill-5" fill="#3C7AD2"></path>
                            <path d="M12.0154784,2.31297692 L12.0154784,5.20466923 L9.28360944,5.20466923 L9.28360944,2.6879 C9.28360944,2.48082308 9.12407251,2.31297692 8.92732003,2.31297692 L8.0051936,2.31297692 L8.0051936,9.23482308 C8.0051936,9.4419 8.16480366,9.60974615 8.36162924,9.60974615 L9.28360944,9.60974615 L9.28360944,6.37997692 L12.0154784,6.37997692 L12.0154784,9.23482308 C12.0154784,9.4419 12.1750885,9.60974615 12.3719141,9.60974615 L13.2938212,9.60974615 L13.2938212,2.6879 C13.2938212,2.48082308 13.1343574,2.31297692 12.9375318,2.31297692 L12.0154784,2.31297692 Z" id="Fill-7" fill="#D7E2F2"></path>
                            <path d="M17.4367732,4.12235385 L17.4367732,7.59066153 C17.4367732,7.90581538 17.2839628,8.20458462 17.0246238,8.3622 C16.3007122,8.80227692 15.551649,8.25258462 15.551649,7.52781538 L15.551649,4.49727692 C15.551649,4.2902 15.392039,4.12235385 15.1952865,4.12235385 L14.2695775,4.12235385 L14.2695043,7.65143077 C14.2695043,8.7868923 15.1525142,9.7158923 16.2318379,9.7158923 L16.7565842,9.7158923 C17.8358349,9.7158923 18.7189179,8.7868923 18.7189179,7.65135385 L18.7189179,4.49727692 C18.7189179,4.2902 18.5593809,4.12235385 18.3625554,4.12235385 L17.4367732,4.12235385 Z" id="Fill-9" fill="#D7E2F2"></path>
                            <path d="M31.4215897,9.60973847 L32.3435699,9.60973847 L32.3435699,4.69812308 C32.3435699,4.49112308 32.184106,4.3232 31.9872805,4.3232 L31.0652271,4.3232 L31.0652271,9.23481538 C31.0652271,9.4418923 31.224764,9.60973847 31.4215897,9.60973847" id="Fill-11" fill="#3C7AD2"></path>
                            <path d="M23.1761548,7.39353847 C23.1761548,8.06084615 22.6571845,8.505 22.0229849,8.505 C21.3887122,8.505 20.8698151,8.06084615 20.8698151,7.39353847 L20.8698151,6.4413077 C20.8698151,5.77407692 21.3887122,5.32984615 22.0229849,5.32984615 C22.6571845,5.32984615 23.1761548,5.77407692 23.1761548,6.4413077 L23.1761548,7.39353847 Z M22.0229849,4.11892308 C20.6820558,4.11892308 19.5848189,5.12815385 19.5848189,6.53892308 L19.5848189,7.302 C19.5848189,8.71276923 20.6820558,9.71592308 22.0229849,9.71592308 C23.3639141,9.71592308 24.4610779,8.71276923 24.4610779,7.302 L24.4610779,6.53892308 C24.4610779,5.12815385 23.3639141,4.11892308 22.0229849,4.11892308 Z" id="Fill-13" fill="#D7E2F2"></path>
                            <path d="M28.917898,7.39353847 C28.917898,8.06084615 28.3990007,8.505 27.7647281,8.505 C27.1305286,8.505 26.6116314,8.06084615 26.6116314,7.39353847 L26.6116314,6.4413077 C26.6116314,5.77407692 27.1305286,5.32984615 27.7647281,5.32984615 C28.3990007,5.32984615 28.917898,5.77407692 28.917898,6.4413077 L28.917898,7.39353847 Z M27.7648013,4.11892308 L27.7647281,4.11892308 C27.345706,4.11892308 26.9503732,4.21746153 26.6050511,4.39607692 L26.6050511,2.69507692 C26.6050511,2.48807692 26.445441,2.32023077 26.2486885,2.32023077 L25.3266352,2.32023077 L25.3266352,7.302 C25.3266352,8.71276923 26.423799,9.71592308 27.7647281,9.71592308 L27.7648013,9.71592308 C29.1056573,9.71592308 30.2028941,8.71276923 30.2028941,7.302 L30.2028941,6.53892308 C30.2028941,5.12815385 29.1056573,4.11892308 27.7648013,4.11892308 Z" id="Fill-15" fill="#3C7AD2"></path>
                            <path d="M54.1954145,7.38347692 C54.1954145,8.05078462 53.6764442,8.49493847 53.0422446,8.49493847 C52.4080451,8.49493847 51.8890749,8.05078462 51.8890749,7.38347692 L51.8890749,6.43124615 C51.8890749,5.76401538 52.4080451,5.31978462 53.0422446,5.31978462 C53.6764442,5.31978462 54.1954145,5.76401538 54.1954145,6.43124615 L54.1954145,7.38347692 Z M53.0423178,4.10886153 L53.0422446,4.10886153 C52.6231495,4.10886153 52.2279628,4.2074 51.8825676,4.38601538 L51.8825676,2.68501538 C51.8825676,2.47801538 51.7230307,2.31016923 51.526132,2.31016923 L50.6041518,2.31016923 L50.6041518,7.29193847 C50.6041518,8.7027077 51.7013155,9.70586153 53.0422446,9.70586153 L53.0423178,9.70586153 C54.3831739,9.70586153 55.4803376,8.7027077 55.4803376,7.29193847 L55.4803376,6.52886153 C55.4803376,5.1180923 54.3831739,4.10886153 53.0423178,4.10886153 Z" id="Fill-17" fill="#D7E2F2"></path>
                            <path d="M41.0264298,5.29193847 L38.5268472,5.29193847 L38.5268472,6.00847692 C38.5268472,6.22386153 38.6928182,6.39847692 38.8975403,6.39847692 L40.0847818,6.39847692 L40.0847818,7.03193847 C40.0847818,7.49932308 39.9738663,7.84432308 39.7446508,8.0874 C39.463158,8.39316923 39.0736743,8.5547077 38.6183872,8.5547077 C38.2082851,8.5547077 37.8177049,8.40524615 37.5740855,8.1550923 C37.2354169,7.80578462 37.162375,7.42655385 37.162375,6.01863077 C37.162375,4.61886153 37.2354169,4.24132308 37.5739393,3.8924 C37.8238465,3.63578462 38.3113042,3.44163077 38.7154109,3.44163077 C40.0817109,3.44163077 40.5405806,3.95186153 40.8829782,4.4164 C40.8880963,4.41586153 40.9277247,4.4164 40.9277247,4.4164 L40.9277247,3.37755385 C40.9277247,3.22401538 40.8580459,3.08047692 40.7441328,2.98463077 C40.1716423,2.50263077 39.6010528,2.3264 38.6183872,2.3264 C37.8249432,2.3264 37.1462897,2.58878462 36.6017291,3.10616923 C35.8497413,3.82055385 35.8498875,4.62655385 35.8500337,5.96178462 L35.8500337,6.07547692 C35.8498875,7.41078462 35.8497413,8.21678462 36.6017291,8.93116923 C37.1387588,9.4414 37.8361297,9.71101538 38.6183872,9.71101538 C39.4401999,9.71101538 40.1634535,9.42001538 40.7102075,8.86955385 L40.7102806,8.86947692 C41.1981039,8.37655385 41.3970498,7.43255385 41.3970498,6.4510923 L41.3970498,5.68186153 C41.3970498,5.46655385 41.2311518,5.29193847 41.0264298,5.29193847" id="Fill-19" fill="#D7E2F2"></path>
                            <path d="M44.7243089,9.67614615 L44.7243089,8.82283847 C44.7243089,8.62083847 44.5688664,8.4573 44.3768664,8.4579923 C44.1825999,8.45868462 43.9389806,8.45945385 43.7329426,8.45945385 C43.2081231,8.45945385 43.2326897,8.18337692 43.2326897,7.46776153 L43.2326897,4.09368462 L43.2326897,2.67683847 C43.2326897,2.47537692 43.0774666,2.31206923 42.8859053,2.31206923 L41.9402357,2.31206923 L41.9402357,7.6313 C41.9402357,8.91953077 42.2558733,9.67614615 43.5775,9.67614615 C44.0882083,9.67614615 44.458609,9.66091538 44.7242357,9.6763 C44.7242357,9.6763 44.7243089,9.67614615 44.7243089,9.67614615" id="Fill-23" fill="#D7E2F2"></path>
                            <path d="M63.95384,9.70194615 L63.95384,8.84863847 C63.95384,8.64663847 63.7983976,8.4831 63.6063976,8.4837923 C63.412131,8.48448462 63.1685118,8.48525385 62.9624737,8.48525385 C62.4376542,8.48525385 62.4622208,8.20917692 62.4622208,7.49356153 L62.4622208,4.11948462 L62.4622208,2.70263847 C62.4622208,2.50117692 62.3069977,2.33786923 62.1154364,2.33786923 L61.169767,2.33786923 L61.169767,7.6571 C61.169767,8.94533077 61.4853313,9.70194615 62.8070313,9.70194615 C63.3177396,9.70194615 63.6881402,9.68671538 63.953767,9.70202308 C63.95384,9.70202308 63.95384,9.70194615 63.95384,9.70194615" id="Fill-28" fill="#D7E2F2"></path>
                            <path d="M48.7826888,7.37213077 C48.7826888,8.03943847 48.2637185,8.48366923 47.6295189,8.48366923 C46.9953194,8.48366923 46.4763491,8.03943847 46.4763491,7.37213077 L46.4763491,6.4199 C46.4763491,5.75266923 46.9953194,5.30843847 47.6295189,5.30843847 C48.2637185,5.30843847 48.7826888,5.75266923 48.7826888,6.4199 L48.7826888,7.37213077 Z M47.6295921,4.09751538 L47.6295189,4.09751538 C46.2885898,4.09751538 45.1914261,5.10674615 45.1914261,6.51751538 L45.1914261,7.2805923 C45.1914261,8.69136153 46.2885898,9.69451538 47.6295189,9.69451538 L47.6295921,9.69451538 C48.9704482,9.69451538 50.0676119,8.69136153 50.0676119,7.2805923 L50.0676119,6.51751538 C50.0676119,5.10674615 48.9704482,4.09751538 47.6295921,4.09751538 Z" id="Fill-30" fill="#D7E2F2"></path>
                            <path d="M59.247632,7.17997692 L59.247632,8.58428462 C59.1479762,8.60466923 59.037792,8.62074615 58.9185413,8.63228462 C58.6260813,8.66128462 58.3637446,8.6665923 58.05944,8.63736153 C57.9404089,8.62605385 57.8303707,8.59413077 57.7324697,8.54305385 C57.6380052,8.49351538 57.5606495,8.4232077 57.4963815,8.32766923 C57.4352573,8.2372077 57.4043297,8.1035923 57.4043297,7.93051538 C57.4043297,7.66105385 57.4956502,7.46797692 57.683702,7.34028462 C57.883891,7.2042077 58.187172,7.1352077 58.5850638,7.1352077 C58.6924697,7.1352077 58.8231263,7.14166923 58.9777644,7.15451538 C59.0788825,7.16305385 59.1690333,7.17151538 59.247632,7.17997692 M59.9391537,4.59213077 C59.556031,4.27028462 58.9959702,4.10705385 58.2741057,4.10705385 C58.0057736,4.10705385 57.723696,4.1275923 57.4356228,4.16813077 C57.2045795,4.20051538 56.8776092,4.24697692 56.6508063,4.30197692 C56.5589009,4.3242077 56.5420112,4.4002077 56.5420112,4.49136153 L56.5420112,5.21728462 C56.5420112,5.34666923 56.5433274,5.46436153 56.673472,5.43097692 C56.916287,5.36874615 57.3875862,5.25882308 57.5154644,5.2365923 C57.7178468,5.20166923 57.9382885,5.18397692 58.1703555,5.18397692 C58.5319092,5.18397692 58.8075528,5.25205385 58.9897554,5.38582308 C59.1608445,5.5119 59.247632,5.7519 59.247632,6.09897692 L59.247632,6.14105385 C59.183364,6.13474615 59.1126617,6.12882308 59.0355254,6.12336153 C58.8913426,6.1132077 58.7066541,6.1079 58.4814598,6.1079 C58.173865,6.1079 57.8759214,6.1445923 57.5961103,6.21697692 C57.3121316,6.29066923 57.0567409,6.40443847 56.8370303,6.5555923 C56.6135908,6.7095923 56.4342397,6.9052077 56.3043145,7.1372077 C56.173073,7.37097692 56.1066845,7.64474615 56.1066845,7.9505923 C56.1066845,8.26113077 56.163495,8.53151538 56.2757264,8.75405385 C56.3886891,8.97851538 56.55137,9.16574615 56.7585779,9.31028462 C56.9625687,9.4529 57.2130608,9.55728462 57.5027425,9.62066923 C57.7842352,9.68228462 58.1030897,9.71351538 58.4503129,9.71351538 C58.7031446,9.71351538 60.5244393,9.68651538 60.5244393,8.7745923 L60.5244393,6.13866923 C60.5244393,5.43913077 60.3275406,4.91882308 59.9391537,4.59213077" id="Fill-32" fill="#D7E2F2"></path>
                        
                        </g-->
                        <!--顶部LOGO-->
                        <path d="M16.5,25 L29.5,25 C29.7761424,25 30,25.2238576 30,25.5 C30,25.7761424 29.7761424,26 29.5,26 L16.5,26 C16.2238576,26 16,25.7761424 16,25.5 C16,25.2238576 16.2238576,25 16.5,25 Z M16.5,28 L21.9615385,28 C22.2376808,28 22.4615385,28.2238576 22.4615385,28.5 C22.4615385,28.7761424 22.2376808,29 21.9615385,29 L16.5,29 C16.2238576,29 16,28.7761424 16,28.5 C16,28.2238576 16.2238576,28 16.5,28 Z M22.9615385,22 L29.5,22 C29.7761424,22 30,22.2238576 30,22.5 C30,22.7761424 29.7761424,23 29.5,23 L22.9615385,23 C22.6853961,23 22.4615385,22.7761424 22.4615385,22.5 C22.4615385,22.2238576 22.6853961,22 22.9615385,22 Z" id="Combined-Shape" fill="#BDD4E8"></path>
                        <rect id="矩形-copy-14" fill="#091234" fill-rule="nonzero" x="87" y="212" width="261" height="99" rx="1"></rect>
                        <rect id="矩形" fill="#3A558E" fill-rule="nonzero" x="492" y="21" width="9" height="9" rx="4.5"></rect>
                        <rect id="矩形-copy-8" fill="#3A558E" fill-rule="nonzero" x="475" y="21" width="9" height="9" rx="4.5"></rect>
                        <rect id="矩形-copy-15" fill="#3A558E" fill-rule="nonzero" x="458" y="21" width="9" height="9" rx="4.5"></rect>
                        <rect id="矩形" fill="#304D87" fill-rule="nonzero" x="10" y="47" width="15" height="7" rx="2"></rect>
                        <g id="分组-9" opacity="0.699032738" transform="translate(10.000000, 64.000000)" fill="#1A3569" fill-rule="nonzero">
                            <rect id="矩形-copy-20" x="1" y="15" width="68" height="9" rx="2"></rect>
                            <rect id="矩形-copy-23" x="1" y="60" width="68" height="9" rx="2"></rect>
                            <rect id="矩形-copy-26" x="1" y="105" width="68" height="9" rx="2"></rect>
                            <rect id="矩形-copy-29" x="1" y="150" width="68" height="9" rx="2"></rect>
                            <rect id="矩形-copy-32" x="1" y="195" width="68" height="9" rx="2"></rect>
                            <rect id="矩形-copy-21" x="1" y="30" width="68" height="9" rx="2"></rect>
                            <rect id="矩形-copy-24" x="1" y="75" width="68" height="9" rx="2"></rect>
                            <rect id="矩形-copy-27" x="1" y="120" width="68" height="9" rx="2"></rect>
                            <rect id="矩形-copy-30" x="1" y="165" width="68" height="9" rx="2"></rect>
                            <rect id="矩形-copy-33" x="1" y="210" width="68" height="9" rx="2"></rect>
                            <rect id="矩形-copy-22" x="1" y="45" width="68" height="9" rx="2"></rect>
                            <rect id="矩形-copy-25" x="1" y="90" width="68" height="9" rx="2"></rect>
                            <rect id="矩形-copy-28" x="1" y="135" width="68" height="9" rx="2"></rect>
                            <rect id="矩形-copy-31" x="1" y="180" width="68" height="9" rx="2"></rect>
                            <rect id="矩形-copy-34" x="1" y="225" width="68" height="9" rx="2"></rect>
                            <rect id="矩形-copy-19" x="0" y="0" width="69" height="9" rx="2"></rect>
                        </g>
                        <rect id="矩形-copy-16" fill="#304D87" fill-rule="nonzero" x="28" y="47" width="15" height="7" rx="2"></rect>
                        <rect id="矩形-copy-17" fill="#0057D2" fill-rule="nonzero" x="46" y="47" width="15" height="7" rx="2"></rect>
                        <rect id="矩形-copy-18" fill="#304D87" fill-rule="nonzero" x="64" y="47" width="15" height="7" rx="2"></rect>
                        <text id="BCH/BTC" font-family="Roboto-Medium, Roboto" font-size="10" font-weight="400" fill="#C9DEFB">
                            <tspan x="98" y="54">BCH/USDT</tspan>
                        </text>
                        <g id="分组-7" transform="translate(149.000000, 45.000000)" fill="#1C3362" fill-rule="nonzero">
                            <rect id="矩形" x="0" y="0" width="14" height="5" rx="1"></rect>
                            <rect id="矩形-copy-36" x="0" y="8" width="21" height="5" rx="1"></rect>
                            <rect id="矩形-copy-43" x="27" y="8" width="21" height="5" rx="2"></rect>
                            <rect id="矩形-copy-107" x="54" y="8" width="21" height="5" rx="1"></rect>
                            <rect id="矩形-copy-109" x="81" y="8" width="21" height="5" rx="1"></rect>
                            <rect id="矩形-copy-106" x="27" y="0" width="12" height="5" rx="1"></rect>
                            <rect id="矩形-copy-108" x="54" y="0" width="14" height="5" rx="1"></rect>
                            <rect id="矩形-copy-110" x="81" y="0" width="18" height="5" rx="1"></rect>
                        </g>
                        <g id="分组-6" transform="translate(97.000000, 89.000000)" fill-rule="nonzero">
                            <rect id="矩形-copy-45" fill="#EF5656" x="9" y="79" width="1" height="10"></rect>
                            <rect id="矩形-copy-50" fill="#EF5656" x="44" y="60" width="1" height="10"></rect>
                            <rect id="矩形-copy-54" fill="#EF5656" x="58" y="61" width="1" height="7"></rect>
                            <rect id="矩形-copy-73" fill="#EF5656" x="121" y="26" width="1" height="23"></rect>
                            <rect id="矩形-copy-81" fill="#EF5656" x="150" y="30" width="1" height="7"></rect>
                            <rect id="矩形-copy-85" fill="#EF5656" x="164" y="30" width="1" height="12"></rect>
                            <rect id="矩形-copy-95" fill="#EF5656" x="199" y="1" width="1" height="18"></rect>
                            <rect id="矩形-copy-97" fill="#EF5656" x="206" y="11" width="1" height="18"></rect>
                            <rect id="矩形-copy-59" fill="#EF5656" x="72" y="61" width="1" height="5"></rect>
                            <rect id="矩形-copy-44" fill="#0DA88B" x="2" y="85" width="1" height="4"></rect>
                            <rect id="矩形-copy-46" fill="#0DA88B" x="16" y="84" width="1" height="5"></rect>
                            <rect id="矩形-copy-47" fill="#0DA88B" x="23" y="81" width="1" height="7"></rect>
                            <rect id="矩形-copy-48" fill="#0DA88B" x="30" y="71" width="1" height="13"></rect>
                            <rect id="矩形-copy-49" fill="#0DA88B" x="37" y="59" width="1" height="16"></rect>
                            <rect id="矩形-copy-55" fill="#0DA88B" x="51" y="62" width="1" height="7"></rect>
                            <rect id="矩形-copy-57" fill="#0DA88B" x="65" y="62" width="1" height="5"></rect>
                            <rect id="矩形-copy-61" fill="#0DA88B" x="79" y="56" width="1" height="5"></rect>
                            <rect id="矩形-copy-67" fill="#0DA88B" x="100" y="37" width="1" height="5"></rect>
                            <rect id="矩形-copy-69" fill="#0DA88B" x="107" y="36" width="1" height="6"></rect>
                            <rect id="矩形-copy-75" fill="#0DA88B" x="129" y="38" width="1" height="10"></rect>
                            <rect id="矩形-copy-77" fill="#0DA88B" x="136" y="30" width="1" height="13"></rect>
                            <rect id="矩形-copy-79" fill="#0DA88B" x="143" y="29" width="1" height="6"></rect>
                            <rect id="矩形-copy-87" fill="#0DA88B" x="171" y="31" width="1" height="7"></rect>
                            <rect id="矩形-copy-89" fill="#0DA88B" x="178" y="17" width="1" height="17"></rect>
                            <rect id="矩形-copy-91" fill="#0DA88B" x="185" y="7" width="1" height="12"></rect>
                            <rect id="矩形-copy-99" fill="#0DA88B" x="213" y="13" width="1" height="12"></rect>
                            <rect id="矩形-copy-101" fill="#0DA88B" x="220" y="16" width="1" height="12"></rect>
                            <rect id="矩形-copy-103" fill="#0DA88B" x="226" y="11" width="1" height="8"></rect>
                            <rect id="矩形-copy-105" fill="#0DA88B" x="233" y="0" width="1" height="18"></rect>
                            <rect id="矩形-copy-93" fill="#0DA88B" x="192" y="3" width="1" height="12"></rect>
                            <rect id="矩形-copy-83" fill="#0DA88B" x="157" y="29" width="1" height="6"></rect>
                            <rect id="矩形-copy-71" fill="#0DA88B" x="114" y="25" width="1" height="17"></rect>
                            <rect id="矩形-copy-63" fill="#0DA88B" x="86" y="46" width="1" height="14"></rect>
                            <rect id="矩形-copy-65" fill="#0DA88B" x="93" y="38" width="1" height="14"></rect>
                            <rect id="矩形-copy-38" fill="#EF5656" x="7" y="86" width="5" height="2"></rect>
                            <rect id="矩形-copy-51" fill="#EF5656" x="42" y="63" width="5" height="6"></rect>
                            <rect id="矩形-copy-53" fill="#EF5656" x="56" y="63" width="5" height="4"></rect>
                            <rect id="矩形-copy-72" fill="#EF5656" x="119" y="28" width="5" height="16"></rect>
                            <rect id="矩形-copy-80" fill="#EF5656" x="148" y="31" width="5" height="1"></rect>
                            <rect id="矩形-copy-84" fill="#EF5656" x="162" y="32" width="5" height="7"></rect>
                            <rect id="矩形-copy-94" fill="#EF5656" x="197" y="5" width="5" height="10"></rect>
                            <rect id="矩形-copy-96" fill="#EF5656" x="204" y="15" width="5" height="9"></rect>
                            <rect id="矩形-copy-58" fill="#EF5656" x="70" y="64" width="5" height="1"></rect>
                            <rect id="矩形-copy-37" fill="#0DA88B" transform="translate(2.500000, 87.500000) scale(1, -1) translate(-2.500000, -87.500000) " x="0" y="86" width="5" height="3"></rect>
                            <rect id="矩形-copy-39" fill="#0DA88B" transform="translate(16.500000, 86.500000) scale(1, -1) translate(-16.500000, -86.500000) " x="14" y="85" width="5" height="3"></rect>
                            <rect id="矩形-copy-40" fill="#0DA88B" transform="translate(23.500000, 83.500000) scale(1, -1) translate(-23.500000, -83.500000) " x="21" y="82" width="5" height="3"></rect>
                            <rect id="矩形-copy-41" fill="#0DA88B" transform="translate(30.500000, 78.000000) scale(1, -1) translate(-30.500000, -78.000000) " x="28" y="74" width="5" height="8"></rect>
                            <rect id="矩形-copy-42" fill="#0DA88B" transform="translate(37.500000, 68.500000) scale(1, -1) translate(-37.500000, -68.500000) " x="35" y="63" width="5" height="11"></rect>
                            <rect id="矩形-copy-52" fill="#0DA88B" transform="translate(51.500000, 65.500000) scale(1, -1) translate(-51.500000, -65.500000) " x="49" y="63" width="5" height="5"></rect>
                            <rect id="矩形-copy-56" fill="#0DA88B" transform="translate(65.500000, 66.000000) scale(1, -1) translate(-65.500000, -66.000000) " x="63" y="65" width="5" height="2"></rect>
                            <rect id="矩形-copy-60" fill="#0DA88B" transform="translate(79.500000, 61.500000) scale(1, -1) translate(-79.500000, -61.500000) " x="77" y="58" width="5" height="7"></rect>
                            <rect id="矩形-copy-62" fill="#0DA88B" transform="translate(86.500000, 54.000000) scale(1, -1) translate(-86.500000, -54.000000) " x="84" y="50" width="5" height="8"></rect>
                            <rect id="矩形-copy-64" fill="#0DA88B" transform="translate(93.500000, 48.000000) scale(1, -1) translate(-93.500000, -48.000000) " x="91" y="46" width="5" height="4"></rect>
                            <rect id="矩形-copy-66" fill="#0DA88B" transform="translate(100.500000, 43.500000) scale(1, -1) translate(-100.500000, -43.500000) " x="98" y="41" width="5" height="5"></rect>
                            <rect id="矩形-copy-68" fill="#0DA88B" transform="translate(107.500000, 39.500000) scale(1, -1) translate(-107.500000, -39.500000) " x="105" y="37" width="5" height="5"></rect>
                            <rect id="矩形-copy-70" fill="#0DA88B" x="112" y="28" width="5" height="9"></rect>
                            <rect id="矩形-copy-74" fill="#0DA88B" x="127" y="42" width="5" height="2"></rect>
                            <rect id="矩形-copy-76" fill="#0DA88B" x="134" y="33" width="5" height="9"></rect>
                            <rect id="矩形-copy-78" fill="#0DA88B" transform="translate(143.500000, 32.000000) scale(1, -1) translate(-143.500000, -32.000000) " x="141" y="31" width="5" height="2"></rect>
                            <rect id="矩形-copy-86" fill="#0DA88B" transform="translate(171.500000, 35.000000) scale(1, -1) translate(-171.500000, -35.000000) " x="169" y="32" width="5" height="6"></rect>
                            <rect id="矩形-copy-88" fill="#0DA88B" transform="translate(178.500000, 25.500000) scale(1, -1) translate(-178.500000, -25.500000) " x="176" y="19" width="5" height="13"></rect>
                            <rect id="矩形-copy-90" fill="#0DA88B" x="183" y="14" width="5" height="5"></rect>
                            <rect id="矩形-copy-92" fill="#0DA88B" x="190" y="5" width="5" height="9"></rect>
                            <rect id="矩形-copy-98" fill="#0DA88B" x="211" y="22" width="5" height="2"></rect>
                            <rect id="矩形-copy-100" fill="#0DA88B" x="218" y="19" width="5" height="3"></rect>
                            <rect id="矩形-copy-102" fill="#0DA88B" x="224" y="16" width="5" height="3"></rect>
                            <rect id="矩形-copy-104" fill="#0DA88B" x="231" y="6" width="5" height="10"></rect>
                            <rect id="矩形-copy-82" fill="#0DA88B" transform="translate(157.500000, 31.500000) scale(1, -1) translate(-157.500000, -31.500000) " x="155" y="31" width="5" height="1"></rect>
                        </g>
                        <g id="分组-5" transform="translate(324.000000, 44.000000)" fill="#1C3362" fill-rule="nonzero">
                            <g id="皮肤">
                                <path d="M11.9286747,3.20846325 C12.6804819,4.20623608 13.0313253,5.50334076 12.9812048,6.95011136 C12.9812048,7.94788419 12.7306024,8.99554566 12.2293976,9.8935412 C12.0790361,10.1429844 11.8284337,10.2427617 11.5778313,10.1429844 C11.3773494,10.0930958 11.1768675,10.0432071 10.9763855,10.0432071 C10.1744578,10.0432071 9.52289157,10.5919822 9.52289157,11.2405345 C9.52289157,11.4400891 9.57301205,11.6396437 9.72337349,11.8391982 C9.77349398,11.9389755 9.82361446,12.0886414 9.77349398,12.2383073 C9.72337349,12.3380846 9.67325301,12.4877506 9.52289157,12.5376392 C8.67084337,12.986637 7.7686747,13.1861915 6.81638554,13.2360802 C6.56578313,13.2360802 6.31518072,12.986637 6.31518072,12.7371938 C6.31518072,12.4877506 6.51566265,12.2383073 6.81638554,12.2383073 C7.46795181,12.2383073 8.06939759,12.0886414 8.67084337,11.8391982 C8.62072289,11.6396437 8.57060241,11.3902004 8.57060241,11.1906459 C8.57060241,9.99331849 9.67325301,8.99554566 11.026506,8.99554566 C11.226988,8.99554566 11.3773494,8.99554566 11.5778313,9.0454343 C11.8785542,8.39688196 12.0289157,7.69844098 12.0289157,6.95011136 C12.0289157,5.70289532 11.7281928,4.65523385 11.126747,3.80712695 C10.9763855,3.60757238 11.026506,3.25835189 11.226988,3.10868597 C11.4274699,2.95902004 11.7783133,3.00890869 11.9286747,3.20846325 Z M1.40337349,9.94342984 C1.30313253,9.99331849 1.25301205,9.99331849 1.15277108,9.99331849 C1.00240964,9.99331849 0.801927711,9.8935412 0.701686747,9.74387528 C0.200481928,8.79599109 -2.22932783e-13,7.94788419 -2.22932783e-13,6.95011136 C-2.22932783e-13,3.45790646 2.85686747,0.614253898 6.3653012,0.614253898 C6.76626506,0.614253898 7.26746988,0.664142539 7.61831325,0.71403118 C7.86891566,0.763919822 8.06939759,1.06325167 8.01927711,1.31269488 C7.96915663,1.56213808 7.66843373,1.76169265 7.41783133,1.71180401 C7.16722892,1.66191537 6.71614458,1.61202673 6.3653012,1.61202673 C3.40819277,1.61202673 1.00240964,4.00668151 1.00240964,6.95011136 C1.00240964,7.74832962 1.20289157,8.49665924 1.60385542,9.29487751 C1.75421687,9.49443207 1.6539759,9.79376392 1.40337349,9.94342984 Z M2.00481928,5.75278396 C2.00481928,5.33949293 2.34141484,5.00445434 2.75662651,5.00445434 C3.17183817,5.00445434 3.50843373,5.33949293 3.50843373,5.75278396 C3.50843373,6.166075 3.17183817,6.50111359 2.75662651,6.50111359 C2.34141484,6.50111359 2.00481928,6.166075 2.00481928,5.75278396 Z M3.50843373,3.5077951 C3.50843373,3.23226774 3.73283078,3.00890869 4.00963855,3.00890869 C4.28644633,3.00890869 4.51084337,3.23226774 4.51084337,3.5077951 C4.51084337,3.78332246 4.28644633,4.00668151 4.00963855,4.00668151 C3.73283078,4.00668151 3.50843373,3.78332246 3.50843373,3.5077951 Z M6.71614458,9.99331849 C6.56578313,10.2427617 6.31518072,10.4423163 6.01445783,10.5420935 C6.01445783,10.6418708 6.16481928,12.1385301 5.31277108,13.1363029 C4.76144578,13.7349666 4.10987952,13.9844098 3.45831325,13.9844098 C2.60626506,13.9844098 1.70409639,13.535412 1.20289157,13.1861915 C1.05253012,13.0864143 0.952289157,12.8868597 1.00240964,12.6873051 C1.05253012,12.4877506 1.20289157,12.3380846 1.40337349,12.288196 C1.40337349,12.288196 1.6539759,12.2383073 1.90457831,11.8890869 L1.9546988,11.8391982 C1.9546988,11.8890869 1.90457831,11.8391982 1.90457831,11.7893096 C1.80433735,11.5398664 1.60385542,11.1906459 1.75421687,10.4922049 C1.9546988,9.49443207 2.90698795,9.14521158 3.55855422,9.09532294 C3.55855422,9.0454343 3.50843373,8.99554566 3.50843373,8.94565702 C3.45831325,8.69621381 3.50843373,8.39688196 3.65879518,8.14743875 C3.70891566,8.14743875 3.70891566,8.09755011 3.70891566,8.09755011 L9.82361446,0.36481069 C10.1243373,-0.034298441 10.6255422,-0.0841870824 11.026506,0.165256125 C11.4274699,0.414699332 11.5277108,0.913585746 11.3773494,1.31269488 L6.71614458,9.99331849 Z M4.51084337,8.69621381 L4.51084337,8.79599109 L5.76385542,9.54432071 C5.76385542,9.59420935 5.8139759,9.54432071 5.86409639,9.49443207 L10.0240964,1.66191537 L4.51084337,8.69621381 Z M4.56096386,12.4877506 C5.01204819,11.9888641 5.06216867,11.2405345 5.06216867,10.8414254 L3.65879518,10.0930958 C3.40819277,10.1429844 2.80674699,10.2427617 2.70650602,10.6917595 C2.65638554,11.04098 2.70650602,11.2405345 2.80674699,11.3902004 C2.90698795,11.589755 3.10746988,11.9888641 2.75662651,12.4877506 C2.65638554,12.5875278 2.60626506,12.6873051 2.5060241,12.7870824 C3.10746988,13.0365256 3.95951807,13.1861915 4.56096386,12.4877506 Z" id="Combined-Shape"></path>
                            </g>
                        </g>
                        <rect id="矩形-copy-111" fill="#050C25" fill-rule="nonzero" transform="translate(217.500000, 220.500000) scale(1, -1) translate(-217.500000, -220.500000) " x="87" y="212" width="261" height="17" rx="1"></rect>
                        <rect id="矩形-copy-36" fill="#3A558D" fill-rule="nonzero" x="99" y="218" width="21" height="5" rx="1"></rect>
                        <rect id="矩形-copy-127" fill="#3A558D" fill-rule="nonzero" x="358" y="43" width="21" height="5" rx="1"></rect>
                        <rect id="矩形-copy-165" fill="#3A558D" fill-rule="nonzero" x="441" y="43" width="21" height="5" rx="1"></rect>
                        <rect id="矩形-copy-154" fill="#10244B" fill-rule="nonzero" x="99" y="239" width="113" height="13" rx="1"></rect>
                        <rect id="矩形-copy-156" fill="#10244B" fill-rule="nonzero" x="99" y="259" width="113" height="13" rx="1"></rect>
                        <rect id="矩形-copy-158" fill="#0DA88B" fill-rule="nonzero" x="99" y="289" width="113" height="13" rx="1"></rect>
                        <g id="Group-19" transform="translate(99.000000, 277.000000)">
                            <g id="Group-32-Copy">
                                <polygon id="Rectangle-89-Copy" fill="#335089" opacity="0.400000006" points="0 3 112.502203 3 112.502203 4.5 0 4.5"></polygon>
                                <circle id="Oval-56-Copy" stroke="#091234" stroke-width="0.5" fill="#1B3363" cx="29.5" cy="3.5" r="2.25"></circle>
                                <ellipse id="Oval-56-Copy-6" stroke="#1D1F23" stroke-width="0.5" fill="#41B371" cx="1.24449339" cy="3.61428571" rx="1" ry="1"></ellipse>
                                <circle id="Oval-56-Copy-4" stroke="#091234" stroke-width="0.5" fill="#1B3363" cx="85.5" cy="3.5" r="2.25"></circle>
                                <circle id="Oval-56-Copy-7" stroke="#091234" stroke-width="0.5" fill="#1B3363" cx="56.5" cy="3.5" r="2.25"></circle>
                                <circle id="Oval-56-Copy-5" stroke="#091234" stroke-width="0.5" fill="#1B3363" cx="110.5" cy="3.5" r="2.25"></circle>
                                <g id="Oval-56-Copy-3">
                                    <circle stroke="#0DA88B" stroke-width="1.5" stroke-linejoin="square" fill="#091234" fill-rule="evenodd" cx="3.5" cy="3.5" r="2.75"></circle>
                                    <circle stroke="#091234" stroke-width="0.5" cx="3.5" cy="3.5" r="3.75"></circle>
                                </g>
                            </g>
                        </g>
                        <g id="Group-19-Copy" transform="translate(222.000000, 277.000000)">
                            <g id="Group-32-Copy">
                                <polygon id="Rectangle-89-Copy" fill="#335089" opacity="0.400000006" points="0 3 112.502203 3 112.502203 4.5 0 4.5"></polygon>
                                <circle id="Oval-56-Copy" stroke="#091234" stroke-width="0.5" fill="#1B3363" cx="29.5" cy="3.5" r="2.25"></circle>
                                <ellipse id="Oval-56-Copy-6" stroke="#1D1F23" stroke-width="0.5" fill="#41B371" cx="1.24449339" cy="3.61428571" rx="1" ry="1"></ellipse>
                                <circle id="Oval-56-Copy-4" stroke="#091234" stroke-width="0.5" fill="#1B3363" cx="85.5" cy="3.5" r="2.25"></circle>
                                <circle id="Oval-56-Copy-7" stroke="#091234" stroke-width="0.5" fill="#1B3363" cx="56.5" cy="3.5" r="2.25"></circle>
                                <circle id="Oval-56-Copy-5" stroke="#091234" stroke-width="0.5" fill="#1B3363" cx="110.5" cy="3.5" r="2.25"></circle>
                                <g id="Oval-56-Copy-3">
                                    <circle stroke="#EF5656" stroke-width="1.5" stroke-linejoin="square" fill="#091234" fill-rule="evenodd" cx="3.5" cy="3.5" r="2.75"></circle>
                                    <circle stroke="#091234" stroke-width="0.5" cx="3.5" cy="3.5" r="3.75"></circle>
                                </g>
                            </g>
                        </g>
                        <rect id="矩形-copy-155" fill="#10244B" fill-rule="nonzero" x="222" y="239" width="113" height="13" rx="1"></rect>
                        <rect id="矩形-copy-157" fill="#10244B" fill-rule="nonzero" x="222" y="259" width="113" height="13" rx="1"></rect>
                        <rect id="矩形-copy-159" fill="#EF5656" fill-rule="nonzero" x="222" y="289" width="113" height="13" rx="1"></rect>
                        <rect id="矩形-copy-142" fill="#357CE1" fill-rule="nonzero" x="99" y="228" width="21" height="1"></rect>
                        <rect id="矩形-copy-141" fill="#1C3362" fill-rule="nonzero" x="128" y="218" width="21" height="5" rx="1"></rect>
                        <g id="分组-32" transform="translate(357.000000, 299.000000)">
                            <g id="分组-31" transform="translate(1.256757, 1.333333)" fill-rule="nonzero">
                                <g id="分组-30">
                                    <g id="Group-89" transform="translate(2.513514, 1.111111) scale(1, -1) translate(-2.513514, -1.111111) " fill="#EE4444">
                                        <g id="Group-88">
                                            <path d="M0,0.444444444 L0,0 L5.02702703,0 L5.02702703,0.444444444 L0,0.444444444 Z M1.25675676,1.77777778 L1.25675676,1.33333333 L5.02702703,1.33333333 L5.02702703,1.77777778 L1.25675676,1.77777778 Z M0,0 L0.418918919,0 L0.418918919,2 L0,2 L0,0 Z" id="Combined-Shape"></path>
                                        </g>
                                    </g>
                                    <g id="Group-89-Copy" transform="translate(0.000000, 3.111111)" fill="#41B37D">
                                        <g id="Group-88">
                                            <path d="M0,0.444444444 L0,0 L5.02702703,0 L5.02702703,0.444444444 L0,0.444444444 Z M1.25675676,1.77777778 L1.25675676,1.33333333 L5.02702703,1.33333333 L5.02702703,1.77777778 L1.25675676,1.77777778 Z M0,0 L0.418918919,0 L0.418918919,2 L0,2 L0,0 Z" id="Combined-Shape"></path>
                                        </g>
                                    </g>
                                </g>
                                <g id="Group-89-Copy-3" transform="translate(11.729730, 0.000000)" fill="#41B37D">
                                    <g id="Group-88">
                                        <path d="M0,0.444444444 L0,0 L5.02702703,0 L5.02702703,0.444444444 L0,0.444444444 Z M1.27106787,2.22222222 L1.27106787,1.77777778 L5.02702703,1.77777778 L5.02702703,2.22222222 L1.27106787,2.22222222 Z M1.27106787,3.55555556 L1.27106787,3.11111111 L5.02702703,3.11111111 L5.02702703,3.55555556 L1.27106787,3.55555556 Z M1.27106787,4.88888889 L1.27106787,4.44444444 L5.02702703,4.44444444 L5.02702703,4.88888889 L1.27106787,4.88888889 Z M0,0 L0.418918919,0 L0.418918919,5.11111111 L0,5.11111111 L0,0 Z" id="Combined-Shape"></path>
                                    </g>
                                </g>
                                <g id="Group-89-Copy-4" transform="translate(25.972973, 2.666667) scale(1, -1) translate(-25.972973, -2.666667) translate(23.459459, 0.000000)" fill="#EE4444">
                                    <g id="Group-88">
                                        <path d="M0,0.444444444 L0,0 L5.02702703,0 L5.02702703,0.444444444 L0,0.444444444 Z M1.28530929,2.22222222 L1.28530929,1.77777778 L5.02702703,1.77777778 L5.02702703,2.22222222 L1.28530929,2.22222222 Z M1.28530929,3.55555556 L1.28530929,3.11111111 L5.02702703,3.11111111 L5.02702703,3.55555556 L1.28530929,3.55555556 Z M1.28530929,4.88888889 L1.28530929,4.44444444 L5.02702703,4.44444444 L5.02702703,4.88888889 L1.28530929,4.88888889 Z M0,0 L0.418918919,0 L0.418918919,5.11111111 L0,5.11111111 L0,0 Z" id="Combined-Shape"></path>
                                    </g>
                                </g>
                            </g>
                            <rect id="矩形" stroke="#357CE1" stroke-width="0.5" fill-rule="nonzero" x="0.25" y="0.25" width="7.04054054" height="7.5" rx="0.84"></rect>
                            <rect id="矩形-copy-9" stroke="#313B59" stroke-width="0.5" x="11.9797297" y="0.25" width="7.04054054" height="7.5" rx="0.84"></rect>
                            <rect id="矩形-copy-10" stroke="#313B59" stroke-width="0.5" x="23.7094595" y="0.25" width="7.04054054" height="7.5" rx="0.84"></rect>
                        </g>
                    </g>
                </g>
            </g>
        </g>
    </g>
</svg>