<?xml version="1.0" standalone="no"?><!DOCTYPE svg PUBLIC "-//W3C//DTD SVG 1.1//EN" "http://www.w3.org/Graphics/SVG/1.1/DTD/svg11.dtd"><svg t="1634924838324" class="icon" viewBox="0 0 1024 1024" version="1.1" xmlns="http://www.w3.org/2000/svg" p-id="59013" xmlns:xlink="http://www.w3.org/1999/xlink" width="48" height="48"><defs><style type="text/css"></style></defs><path d="M512 0C229.376 0 0 229.376 0 512c0 70.144 14.336 137.216 39.936 198.656L248.832 501.76c33.28-33.28 87.552-33.28 120.832 0l69.632 69.632c16.896 16.896 43.52 16.896 60.416 0l208.384-208.384h-131.584c-23.552 0-42.496-18.944-42.496-42.496 0-23.552 18.944-42.496 42.496-42.496h234.496c23.552 0 42.496 18.944 42.496 42.496v234.496c0 23.552-18.944 42.496-42.496 42.496-23.552 0-42.496-18.944-42.496-42.496V422.912l-238.08 238.08c-33.28 33.28-87.552 33.28-120.832 0l-69.632-69.632c-16.896-16.896-43.52-16.896-60.416 0L81.92 789.504c91.136 141.312 249.856 234.496 430.08 234.496 282.624 0 512-229.376 512-512S794.624 0 512 0z" p-id="59014" fill="#f2334f"></path></svg>