<?xml version="1.0" encoding="UTF-8"?>
<svg width="1600px" height="1500px" viewBox="0 0 16 15" version="1.1" xmlns="http://www.w3.org/2000/svg" xmlns:xlink="http://www.w3.org/1999/xlink">
    <!-- Generator: Sketch 54.1 (76490) - https://sketchapp.com -->
    <title>编组 8</title>
    <desc>Created with Sketch.</desc>
    <g id="统一性整合页面web" stroke="none" stroke-width="1" fill="none" fill-rule="evenodd">
        <g id="375屏幕放5个" transform="translate(-187.000000, -247.000000)">
            <g id="编组-8" transform="translate(186.000000, 245.000000)">
                <rect id="矩形" fill-opacity="0" fill="#C57474" x="0" y="0" width="18" height="18"></rect>
                <g id="编组-3" transform="translate(0.000000, 2.000000)">
                    <g id="编组-4" transform="translate(1.000000, 0.000000)">
                        <polygon id="Path" fill="#FFBF34" points="2.75555556 -1.45483625e-12 7.91111111 -1.45483625e-12 4.08888889 4.2"></polygon>
                        <polygon id="Path" fill="#FFCB5A" points="1.09157128e-12 4.2 2.75555556 -1.45483625e-12 4.08888889 4.2"></polygon>
                        <polygon id="Path" fill="#FFAA3C" points="7.91111111 14.3 4.08888889 4.2 2.54640753e-12 4.2"></polygon>
                        <polygon id="Path" fill="#FFCB5A" points="11.7333333 4.2 7.91111111 -1.45483625e-12 4.08888889 4.2"></polygon>
                        <polygon id="Path" fill="#FFC64A" points="7.91111111 14.3 11.7333333 4.2 4.08888889 4.2"></polygon>
                        <polygon id="Path" fill="#FFBF34" points="7.91111111 -1.45483625e-12 13.4222222 -1.45483625e-12 11.7333333 4.2"></polygon>
                        <polygon id="Path" fill="#FFAA3C" points="16 4.2 11.7333333 4.2 7.91111111 14.3"></polygon>
                        <polygon id="Path" fill="#FFCB5A" points="13.4222222 -1.45483625e-12 16 4.2 11.7333333 4.2"></polygon>
                    </g>
                    <path d="M12.2,3.5 C12.2,3.6 12.2,3.6 12.1,3.6 L8.7,8.8 L7,8.8 L6.4,3.9 C6.4,3.7 6.3,3.6 6.2,3.5 C6.2,3.5 6.1,3.4 6,3.4 L6.1,3.2 L7.7,3.2 C7.9,3.2 8,3.3 8.1,3.3 C8.1,3.4 8.1,3.5 8.2,3.7 L8.5,7 L10.3,3.8 L10.3,3.6 C10.3,3.5 10.2,3.4 10.2,3.4 C10.1,3.4 10,3.4 9.9,3.4 L10,3.2 L11.9,3.2 C12,3.2 12.1,3.2 12.2,3.3 C12.3,3.4 12.3,3.4 12.3,3.5 C12.3,3.4 12.3,3.5 12.2,3.5 L12.2,3.5 Z" id="Path" fill="#F76B1C"></path>
                </g>
            </g>
        </g>
    </g>
</svg>